fontCallback.success({"glyphs":{"S":{"x_min":18.4375,"x_max":946.53125,"ha":1004,"o":"m 18 48 l 65 289 l 150 289 q 212 118 150 174 q 403 62 274 62 q 571 102 508 62 q 648 219 633 142 q 630 314 660 280 q 487 377 599 348 l 343 415 q 155 520 202 452 q 131 712 107 587 q 277 947 161 863 q 574 1031 394 1031 q 756 1016 663 1031 q 946 971 849 1001 l 903 747 l 817 747 q 760 900 817 851 q 580 949 703 949 q 422 914 480 949 q 350 809 364 879 q 367 713 338 746 q 527 645 396 680 l 671 608 q 855 498 806 572 q 878 292 904 423 q 727 59 848 139 q 400 -20 605 -20 q 207 -3 301 -20 q 18 48 112 13 "},"â±«":{"x_min":-25.78125,"x_max":1076.234375,"ha":1014,"o":"m -25 0 l -6 95 l 757 920 l 272 920 l 242 768 l 149 768 l 197 1013 l 1076 1013 l 1057 917 l 300 93 l 904 93 l 844 -217 l 767 -217 q 767 -96 767 -216 q 712 0 779 0 l 365 0 l -25 0 "},"Â¦":{"x_min":179,"x_max":325,"ha":505,"o":"m 325 972 l 325 458 l 179 458 l 179 972 l 325 972 m 325 277 l 325 -237 l 179 -237 l 179 277 l 325 277 "},"/":{"x_min":-110.546875,"x_max":619.171875,"ha":507,"o":"m 468 1013 l 619 1013 l 39 -129 l -110 -129 l 468 1013 "},"y":{"x_min":-26.078125,"x_max":886.0625,"ha":807,"o":"m 336 -185 l 144 639 l 66 639 l 82 721 l 376 721 l 538 23 q 668 263 616 136 q 772 637 720 390 l 675 637 l 691 720 l 886 720 q 844 521 869 633 q 709 118 784 246 q 350 -274 510 -213 q 130 -309 260 -309 q -26 -279 66 -309 l 3 -129 l 79 -129 q 77 -159 77 -145 q 108 -221 77 -206 q 152 -231 123 -227 q 184 -234 168 -234 q 336 -185 260 -234 "},"â±¨":{"x_min":47.296875,"x_max":1018.625,"ha":1010,"o":"m 799 141 q 798 127 798 134 q 844 93 798 93 q 904 110 888 93 q 931 161 920 128 l 1018 161 q 998 86 1009 120 q 987 14 987 52 q 994 -42 987 -23 q 1001 -101 1001 -62 q 972 -176 1001 -139 q 879 -250 944 -213 q 710 -297 815 -286 l 657 -179 q 819 -133 778 -159 q 860 -81 860 -107 q 840 -5 860 -55 q 702 -19 775 -19 q 562 95 596 -19 q 560 124 560 102 q 571 206 560 147 l 622 465 q 632 545 632 511 q 623 592 632 575 q 549 628 607 628 q 432 574 477 628 q 366 405 388 521 l 287 0 l 47 0 l 236 974 l 129 974 l 144 1055 l 492 1055 l 407 619 q 524 712 463 683 q 670 741 585 741 q 840 668 792 741 q 871 549 871 623 q 861 458 871 508 l 799 141 "},"Ã�":{"x_min":-108.5,"x_max":1011.15625,"ha":1078,"o":"m -108 0 l -92 82 l -10 82 l 552 1012 l 714 1012 l 914 82 l 1011 82 l 995 0 l 521 0 l 537 82 l 636 82 l 593 289 l 212 289 l 87 82 l 208 82 l 192 0 l -108 0 m 261 371 l 575 371 l 495 758 l 261 371 m 696 1287 l 885 1287 l 649 1109 l 537 1109 l 696 1287 "},"g":{"x_min":31.140625,"x_max":925.640625,"ha":971,"o":"m 669 593 q 622 634 665 634 q 421 525 499 634 q 344 308 373 457 q 340 134 320 182 q 435 86 361 86 q 549 142 505 86 q 617 324 592 198 l 669 593 m 925 674 l 796 8 q 642 -225 763 -157 q 320 -309 494 -309 q 176 -297 248 -309 q 31 -264 105 -286 l 65 -92 l 141 -92 q 141 -103 141 -98 q 178 -197 141 -165 q 306 -232 218 -232 q 473 -179 417 -232 q 556 9 529 -125 l 571 91 q 336 -20 488 -20 q 115 66 185 -20 q 74 303 45 152 q 282 620 110 487 q 661 740 436 740 q 925 674 844 740 "},"Â²":{"x_min":3.390625,"x_max":553.671875,"ha":608,"o":"m 151 871 l 87 871 l 113 1003 q 217 1023 164 1016 q 324 1031 269 1031 q 506 987 446 1031 q 550 866 565 944 q 494 767 539 811 q 330 662 448 723 l 147 568 l 427 568 l 440 633 l 507 633 l 475 464 l 3 464 l 21 553 l 119 610 q 305 741 262 694 q 360 852 348 789 q 349 941 371 909 q 278 974 328 974 q 201 945 236 974 q 151 871 166 917 "},"Ã«":{"x_min":46,"x_max":826.71875,"ha":884,"o":"m 583 564 q 499 664 583 664 q 396 603 434 664 q 324 352 358 542 q 339 352 324 352 q 578 516 546 352 q 583 564 583 542 m 308 281 q 304 206 304 256 q 443 56 304 56 q 577 98 521 56 q 662 218 633 139 l 775 218 q 624 37 722 95 q 370 -20 526 -20 q 102 78 183 -20 q 46 256 46 147 q 56 358 46 303 q 213 640 91 539 q 514 740 335 740 q 734 690 644 740 q 824 548 824 639 q 819 510 824 529 q 308 281 777 281 m 321 995 q 364 1065 329 1036 q 440 1095 400 1095 q 505 1065 481 1095 q 520 995 528 1036 q 477 925 511 955 q 402 896 442 896 q 337 925 362 896 q 321 995 314 955 m 624 995 q 667 1065 632 1036 q 743 1095 702 1095 q 808 1065 783 1095 q 824 995 832 1036 q 781 925 817 955 q 705 896 745 896 q 640 925 664 896 q 624 995 616 955 "},"ÃŽ":{"x_min":-32.546875,"x_max":692.40625,"ha":650,"o":"m -32 0 l -16 82 l 112 82 l 278 931 l 148 931 l 164 1013 l 684 1013 l 669 931 l 539 931 l 373 82 l 503 82 l 488 0 l -32 0 m 367 1288 l 576 1288 l 692 1109 l 581 1109 l 458 1218 l 292 1109 l 181 1109 l 367 1288 "},"e":{"x_min":46,"x_max":824,"ha":884,"o":"m 583 564 q 499 664 583 664 q 396 603 434 664 q 324 352 358 542 q 339 352 324 352 q 578 516 546 352 q 583 564 583 542 m 308 281 q 304 206 304 256 q 443 56 304 56 q 577 98 521 56 q 662 218 633 139 l 775 218 q 624 37 722 95 q 370 -20 526 -20 q 102 78 183 -20 q 46 256 46 147 q 56 358 46 303 q 213 640 91 539 q 514 740 335 740 q 734 690 644 740 q 824 548 824 639 q 819 510 824 529 q 308 281 777 281 "},"Ãƒ":{"x_min":-108.5,"x_max":1011.15625,"ha":1078,"o":"m -108 0 l -92 82 l -10 82 l 552 1012 l 714 1012 l 914 82 l 1011 82 l 995 0 l 521 0 l 537 82 l 636 82 l 593 289 l 212 289 l 87 82 l 208 82 l 192 0 l -108 0 m 261 371 l 575 371 l 495 758 l 261 371 m 400 1109 l 402 1117 q 463 1246 418 1200 q 577 1291 509 1291 q 668 1264 618 1291 q 675 1260 673 1261 l 720 1237 q 749 1225 737 1229 q 773 1223 760 1223 q 820 1239 800 1223 q 846 1286 840 1256 l 847 1289 l 921 1289 l 919 1279 q 858 1152 903 1196 q 745 1108 813 1108 q 700 1113 722 1108 q 646 1138 678 1119 l 611 1157 q 578 1171 594 1166 q 549 1176 562 1176 q 501 1158 521 1176 q 476 1111 481 1141 l 475 1109 l 400 1109 "},"J":{"x_min":-218.375,"x_max":731.75,"ha":657,"o":"m -218 -242 l -187 -83 l -99 -83 q -87 -177 -107 -147 q -15 -207 -67 -207 q 86 -156 50 -207 q 149 33 122 -105 l 323 931 l 176 931 l 192 1013 l 731 1013 l 715 931 l 585 931 l 410 28 q 280 -212 378 -136 q 1 -289 182 -289 q -109 -277 -54 -289 q -218 -242 -164 -265 "},"Â»":{"x_min":69.171875,"x_max":771.75,"ha":868,"o":"m 192 725 l 459 463 l 438 350 l 69 88 l 88 189 l 292 406 l 173 625 l 192 725 m 504 725 l 771 463 l 750 350 l 381 88 l 400 189 l 605 406 l 485 625 l 504 725 "},"Â©":{"x_min":192,"x_max":1197,"ha":1389,"o":"m 502 969 q 694 1007 591 1007 q 886 969 797 1007 q 1049 858 975 932 q 1160 695 1123 784 q 1197 502 1197 606 q 1160 310 1197 399 q 1049 148 1123 222 q 886 37 975 74 q 694 0 797 0 q 502 37 591 0 q 339 148 413 74 q 228 310 265 222 q 192 502 192 399 q 228 695 192 606 q 339 858 265 784 q 502 969 413 932 m 846 873 q 694 903 776 903 q 542 873 612 903 q 412 784 471 843 q 325 656 354 726 q 296 502 296 585 q 325 349 296 419 q 412 220 354 279 q 541 133 470 162 q 694 104 612 104 q 847 132 777 104 q 976 220 917 161 q 1063 349 1034 279 q 1093 502 1093 419 q 1063 656 1093 585 q 976 784 1034 726 q 846 873 916 844 m 943 393 q 863 251 925 298 q 695 204 800 204 q 489 286 568 204 q 411 502 411 368 q 490 721 411 639 q 702 803 569 803 q 810 790 756 803 q 923 751 864 777 l 923 600 l 852 600 q 808 699 844 663 q 718 736 773 736 q 607 673 647 736 q 567 502 567 611 q 607 331 567 392 q 718 270 647 270 q 800 301 767 270 q 849 393 834 332 l 943 393 "},"Ã²":{"x_min":47,"x_max":880,"ha":925,"o":"m 404 56 q 523 121 480 56 q 600 360 566 186 q 623 541 623 474 q 616 599 623 576 q 522 664 598 664 q 401 598 445 664 q 324 360 357 533 q 302 182 302 249 q 309 122 302 145 q 404 56 327 56 m 707 81 q 389 -20 579 -20 q 110 81 198 -20 q 47 267 47 154 q 56 360 47 310 q 218 639 91 539 q 537 740 346 740 q 816 640 728 740 q 880 454 880 567 q 869 360 880 410 q 707 81 835 182 m 483 1110 l 608 856 l 497 856 l 294 1110 l 483 1110 "},"^":{"x_min":140.375,"x_max":1023.359375,"ha":1164,"o":"m 659 1013 l 1023 635 l 878 635 l 581 848 l 284 635 l 140 635 l 508 1013 l 659 1013 "},"Â«":{"x_min":96.296875,"x_max":798.890625,"ha":868,"o":"m 798 725 l 779 625 l 575 406 l 695 189 l 675 88 l 408 350 l 429 463 l 798 725 m 486 725 l 467 625 l 262 406 l 383 189 l 363 88 l 96 350 l 118 463 l 486 725 "},"D":{"x_min":-32.546875,"x_max":1160.3125,"ha":1204,"o":"m 373 82 l 467 82 q 720 183 626 82 q 856 507 813 285 q 846 829 899 728 q 633 931 792 931 l 539 931 l 373 82 m -32 0 l -16 82 l 112 82 l 278 931 l 148 931 l 164 1013 l 683 1013 q 1075 882 956 1013 q 1146 507 1194 752 q 929 130 1099 261 q 486 0 758 0 l -32 0 "},"Ã¿":{"x_min":-26.078125,"x_max":886.0625,"ha":807,"o":"m 336 -185 l 144 639 l 66 639 l 82 721 l 376 721 l 538 23 q 668 263 616 136 q 772 637 720 390 l 675 637 l 691 720 l 886 720 q 844 521 869 633 q 709 118 784 246 q 350 -274 510 -213 q 130 -309 260 -309 q -26 -279 66 -309 l 3 -129 l 79 -129 q 77 -159 77 -145 q 108 -221 77 -206 q 152 -231 123 -227 q 184 -234 168 -234 q 336 -185 260 -234 m 284 994 q 327 1064 292 1035 q 403 1094 363 1094 q 468 1064 444 1094 q 483 994 491 1035 q 440 924 475 954 q 365 895 405 895 q 300 924 325 895 q 284 994 277 954 m 587 994 q 631 1064 595 1035 q 706 1094 665 1094 q 771 1064 747 1094 q 787 994 795 1035 q 744 924 780 954 q 668 895 709 895 q 603 924 627 895 q 587 994 580 954 "},"Ã­":{"x_min":80.03125,"x_max":646.296875,"ha":528,"o":"m 335 82 l 438 82 l 423 0 l 80 0 l 204 639 l 101 639 l 117 721 l 459 721 l 335 82 m 457 1111 l 646 1111 l 343 856 l 231 856 l 457 1111 "},"w":{"x_min":42.046875,"x_max":1235.625,"ha":1196,"o":"m 893 203 q 994 326 899 208 q 1129 638 1091 450 l 1034 638 l 1051 721 l 1235 721 q 1112 328 1196 461 q 851 0 980 122 l 685 0 l 620 451 l 379 0 l 214 0 l 120 639 l 42 639 l 57 721 l 353 721 l 422 248 l 675 721 l 818 721 l 893 203 "},"$":{"x_min":57.359375,"x_max":876.96875,"ha":966,"o":"m 57 39 l 96 237 l 174 237 q 217 101 174 146 q 357 57 261 57 l 367 57 l 420 331 q 198 433 258 368 q 159 609 137 498 q 279 802 182 731 q 525 873 376 873 l 561 1057 l 643 1057 l 607 873 q 749 857 683 873 q 876 815 816 842 l 841 631 l 761 631 q 718 753 761 709 q 592 798 675 798 l 544 546 q 779 438 718 506 q 816 247 840 370 q 692 51 792 121 q 434 -18 593 -18 l 398 -202 l 316 -202 l 352 -19 q 204 -3 277 -19 q 57 39 130 11 m 511 799 q 412 763 451 791 q 365 693 373 734 q 380 616 357 645 q 466 568 403 587 l 511 799 m 449 57 q 560 93 519 64 q 610 173 601 123 q 593 256 620 223 q 498 309 567 288 l 449 57 "},"\\":{"x_min":111.21875,"x_max":396.046875,"ha":507,"o":"m 261 1013 l 396 -129 l 245 -129 l 111 1013 l 261 1013 "},"ÃŒ":{"x_min":-32.546875,"x_max":684.953125,"ha":650,"o":"m -32 0 l -16 82 l 112 82 l 278 931 l 148 931 l 164 1013 l 684 1013 l 669 931 l 539 931 l 373 82 l 503 82 l 488 0 l -32 0 m 446 1288 l 534 1109 l 423 1109 l 257 1288 l 446 1288 "},"Âµ":{"x_min":42.921875,"x_max":964.546875,"ha":1017,"o":"m 964 721 l 840 82 l 943 82 l 927 0 l 584 0 l 600 84 q 510 4 552 28 q 418 -20 468 -20 q 378 -13 397 -20 q 340 8 360 -6 l 282 -288 l 42 -288 l 223 639 l 120 639 l 136 721 l 479 721 l 400 316 q 382 170 382 220 q 387 130 382 143 q 463 93 403 93 q 579 146 535 93 q 645 316 623 200 l 724 721 l 964 721 "},"Ã‡":{"x_min":45.390625,"x_max":1091.96875,"ha":1105,"o":"m 992 289 q 803 56 922 132 q 510 -20 685 -20 q 132 121 253 -20 q 58 505 11 262 q 281 889 105 748 q 714 1031 458 1031 q 898 1009 805 1031 q 1091 943 991 987 l 1043 695 l 957 695 q 899 885 957 822 q 726 949 841 949 q 485 840 578 949 q 348 505 392 731 q 355 170 304 279 q 555 62 406 62 q 731 118 656 62 q 858 289 806 175 l 992 289 m 566 0 q 612 -80 600 -43 q 618 -152 625 -117 q 557 -241 607 -210 q 426 -272 508 -272 q 359 -267 393 -272 q 292 -254 326 -263 l 312 -148 q 368 -165 340 -159 q 420 -172 396 -172 q 485 -156 461 -172 q 515 -109 510 -140 q 512 -68 519 -90 q 480 0 506 -46 l 566 0 "},"-":{"x_min":57.640625,"x_max":518.796875,"ha":576,"o":"m 92 464 l 518 464 l 483 281 l 57 281 l 92 464 "},"Q":{"x_min":69,"x_max":1189,"ha":1210,"o":"m 522 -18 q 151 120 266 -18 q 69 370 69 219 q 82 504 69 432 q 303 890 130 750 q 731 1031 476 1031 q 1104 891 986 1031 q 1189 638 1189 791 q 1174 505 1189 576 q 995 154 1132 289 q 644 -11 857 20 q 721 -66 673 -49 q 925 -106 833 -106 l 1056 -106 l 1023 -273 l 907 -273 q 630 -194 735 -273 q 522 -18 554 -138 m 542 62 q 756 171 672 62 q 884 505 841 280 q 907 705 907 620 q 886 839 907 786 q 714 949 844 949 q 501 838 585 949 q 372 505 416 728 q 351 308 351 392 q 371 171 351 226 q 542 62 413 62 "},"M":{"x_min":-39.328125,"x_max":1571.3125,"ha":1537,"o":"m -39 0 l -23 82 l 105 82 l 270 931 l 141 931 l 157 1013 l 575 1013 l 737 363 l 1154 1013 l 1571 1013 l 1555 931 l 1426 931 l 1260 82 l 1390 82 l 1374 0 l 853 0 l 869 82 l 998 82 l 1148 855 l 697 148 l 525 148 l 350 855 l 200 82 l 328 82 l 313 0 l -39 0 "},"C":{"x_min":45.390625,"x_max":1091.96875,"ha":1105,"o":"m 992 289 q 803 56 922 132 q 510 -20 685 -20 q 132 121 253 -20 q 58 505 11 262 q 281 889 105 748 q 714 1031 458 1031 q 898 1009 805 1031 q 1091 943 991 987 l 1043 694 l 957 694 q 899 885 957 821 q 726 949 841 949 q 485 840 578 949 q 348 505 392 731 q 355 170 304 279 q 555 62 406 62 q 731 118 656 62 q 858 289 806 174 l 992 289 "},"!":{"x_min":98.484375,"x_max":532.59375,"ha":610,"o":"m 101 109 q 156 200 111 162 q 254 238 201 238 q 337 200 307 238 q 358 109 368 162 q 302 17 347 55 q 204 -20 257 -20 q 121 17 151 -20 q 101 109 90 55 m 262 1012 l 532 1012 l 340 440 l 315 312 l 221 312 l 262 440 l 262 1012 "},"Ã§":{"x_min":47,"x_max":822.9375,"ha":846,"o":"m 757 225 q 616 40 707 101 q 387 -20 524 -20 q 108 79 194 -20 q 47 262 47 150 q 57 360 47 308 q 215 640 91 539 q 525 740 340 740 q 675 726 601 740 q 822 683 749 712 l 783 484 l 707 484 q 709 513 709 499 q 680 620 709 582 q 569 664 646 664 q 413 596 468 664 q 324 360 357 528 q 308 212 308 273 q 320 127 308 160 q 442 56 348 56 q 567 100 514 56 q 644 225 619 143 l 757 225 m 453 0 q 499 -80 487 -43 q 505 -152 512 -117 q 444 -241 494 -210 q 312 -272 394 -272 q 246 -267 280 -272 q 179 -254 213 -263 l 198 -148 q 255 -165 227 -159 q 307 -172 282 -172 q 372 -156 348 -172 q 402 -109 396 -140 q 399 -68 406 -90 q 367 0 392 -46 l 453 0 "},"Ãˆ":{"x_min":-32.546875,"x_max":1074.21875,"ha":1059,"o":"m -32 0 l -16 82 l 112 82 l 278 931 l 148 931 l 164 1013 l 1074 1013 l 1028 774 l 934 774 l 962 920 l 536 920 l 473 595 l 738 595 l 763 723 l 856 723 l 788 374 l 695 374 l 720 503 l 455 503 l 376 92 l 815 92 l 842 238 l 935 238 l 889 0 l -32 0 m 674 1288 l 762 1109 l 651 1109 l 484 1288 l 674 1288 "},"{":{"x_min":108.8125,"x_max":893.46875,"ha":893,"o":"m 660 -145 l 643 -227 l 543 -227 q 330 -210 382 -227 q 251 -151 277 -193 q 237 -89 237 -127 q 250 23 237 -52 l 283 193 q 274 334 303 295 q 150 374 245 374 l 108 374 l 125 456 l 166 456 q 305 494 262 456 q 369 636 349 533 l 402 805 q 432 918 417 881 q 473 980 448 955 q 574 1038 515 1021 q 793 1055 633 1055 l 893 1055 l 877 974 l 807 974 q 697 942 731 974 q 645 818 663 910 l 609 635 q 546 481 588 527 q 412 415 504 435 q 521 347 497 392 q 524 194 545 302 l 488 10 q 492 -113 470 -81 q 590 -145 514 -145 l 660 -145 "},"X":{"x_min":-72.5625,"x_max":1122.375,"ha":1078,"o":"m 448 390 l 177 82 l 302 82 l 286 0 l -72 0 l -56 82 l 67 82 l 409 469 l 183 931 l 90 931 l 105 1013 l 609 1013 l 593 931 l 482 931 l 622 645 l 872 931 l 754 931 l 769 1013 l 1122 1013 l 1106 931 l 981 931 l 660 567 l 898 82 l 994 82 l 978 0 l 473 0 l 488 82 l 601 82 l 448 390 "},"Ã´":{"x_min":47,"x_max":880,"ha":925,"o":"m 404 56 q 523 121 480 56 q 600 360 566 186 q 623 541 623 474 q 616 599 623 576 q 522 664 598 664 q 401 598 445 664 q 324 360 357 533 q 302 182 302 249 q 309 122 302 145 q 404 56 327 56 m 707 81 q 389 -20 579 -20 q 110 81 198 -20 q 47 267 47 154 q 56 360 47 310 q 218 639 91 539 q 537 740 346 740 q 816 640 728 740 q 880 454 880 567 q 869 360 880 410 q 707 81 835 182 m 486 1110 l 650 1110 l 773 856 l 662 856 l 547 1008 l 373 856 l 262 856 l 486 1110 "},"Â¼":{"x_min":54.9375,"x_max":1298.6875,"ha":1449,"o":"m 1243 11 l 891 11 l 904 75 l 988 75 l 1005 157 l 758 157 l 770 216 l 1097 578 l 1268 578 l 1199 221 l 1298 221 l 1286 157 l 1186 157 l 1170 75 l 1255 75 l 1243 11 m 1017 221 l 1061 447 l 854 221 l 1017 221 m 54 464 l 67 528 l 178 528 l 259 943 l 122 875 l 135 946 l 302 1031 l 456 1031 l 358 528 l 469 528 l 457 464 l 54 464 m 1085 1031 l 1201 1031 l 362 -20 l 247 -20 l 1085 1031 "},"#":{"x_min":94,"x_max":1069,"ha":1163,"o":"m 694 592 l 515 592 l 467 406 l 646 406 l 694 592 m 617 997 l 552 736 l 731 736 l 797 997 l 946 997 l 881 736 l 1069 736 l 1069 592 l 845 592 l 798 406 l 991 406 l 991 260 l 763 260 l 698 0 l 548 0 l 613 260 l 434 260 l 369 0 l 218 0 l 283 260 l 94 260 l 94 406 l 316 406 l 363 592 l 172 592 l 172 736 l 401 736 l 466 997 l 617 997 "},"â±©":{"x_min":-12.40625,"x_max":1273.40625,"ha":1207,"o":"m -12 0 l 3 82 l 133 82 l 298 930 l 168 930 l 184 1012 l 705 1012 l 689 930 l 559 930 l 487 560 l 988 930 l 880 930 l 895 1012 l 1273 1012 l 1257 930 l 1122 930 l 698 617 l 1088 82 l 1188 82 l 1130 -218 l 1053 -218 q 1053 -96 1053 -216 q 998 0 1065 0 l 829 0 l 473 491 l 394 82 l 524 82 l 508 0 l -12 0 "},"ÃŠ":{"x_min":-32.546875,"x_max":1074.21875,"ha":1059,"o":"m -32 0 l -16 82 l 112 82 l 278 931 l 148 931 l 164 1013 l 1074 1013 l 1028 774 l 934 774 l 962 920 l 536 920 l 473 595 l 738 595 l 763 723 l 856 723 l 788 374 l 695 374 l 720 503 l 455 503 l 376 92 l 815 92 l 842 238 l 935 238 l 889 0 l -32 0 m 595 1288 l 804 1288 l 920 1109 l 809 1109 l 686 1218 l 520 1109 l 408 1109 l 595 1288 "},")":{"x_min":-52.21875,"x_max":541.90625,"ha":657,"o":"m -52 -216 l -36 -134 q 155 57 83 -69 q 272 419 227 185 q 295 781 318 653 q 179 974 273 908 l 194 1055 q 489 809 408 965 q 525 419 571 653 q 336 26 480 184 q -52 -216 192 -131 "},"Ã…":{"x_min":-135.640625,"x_max":984.703125,"ha":1078,"o":"m 572 1158 q 534 1096 541 1132 q 548 1033 526 1059 q 605 1007 569 1007 q 674 1033 642 1007 q 712 1096 705 1059 q 698 1158 719 1132 q 640 1185 676 1185 q 572 1158 604 1185 m -135 0 l -119 82 l -36 82 l 481 938 q 433 1004 446 963 q 429 1095 420 1045 q 513 1232 445 1175 q 660 1289 581 1289 q 786 1232 740 1289 q 815 1095 831 1175 q 777 1005 806 1045 q 703 938 749 965 l 888 82 l 984 82 l 968 0 l 494 0 l 510 82 l 609 82 l 566 289 l 185 289 l 61 82 l 181 82 l 165 0 l -135 0 m 235 371 l 549 371 l 469 758 l 235 371 "},"Ã¸":{"x_min":-36.4375,"x_max":964.09375,"ha":926,"o":"m 312 281 l 625 543 q 600 634 625 604 q 523 664 575 664 q 404 599 448 664 q 330 374 360 534 l 312 281 m 304 177 q 329 86 304 117 q 406 56 354 56 q 523 120 479 56 q 597 344 566 184 l 616 440 l 304 177 m 831 619 q 876 505 867 570 q 871 360 886 440 q 709 81 837 182 q 390 -20 581 -20 q 255 -3 315 -20 q 148 47 196 13 l 9 -69 l -36 -11 l 96 99 q 52 215 61 150 q 57 360 42 281 q 220 639 93 539 q 538 740 347 740 q 677 723 616 740 q 780 673 738 706 l 917 787 l 964 729 l 831 619 "},"Ã¢":{"x_min":38.0625,"x_max":800.9375,"ha":900,"o":"m 569 593 q 530 634 569 634 q 350 525 439 634 q 276 308 309 475 q 269 134 252 182 q 351 86 287 86 q 454 142 415 86 q 518 324 494 198 l 569 593 m 800 698 l 682 83 l 772 83 l 756 0 l 455 0 l 472 91 q 265 -20 398 -20 q 76 66 134 -20 q 48 303 18 152 q 207 585 77 454 q 567 740 361 740 q 800 698 771 740 m 429 1110 l 594 1110 l 717 856 l 606 856 l 491 1008 l 317 856 l 206 856 l 429 1110 "},"}":{"x_min":0.890625,"x_max":784.171875,"ha":893,"o":"m 17 -145 l 85 -145 q 195 -113 160 -145 q 247 10 229 -81 l 283 194 q 346 346 304 301 q 481 415 388 392 q 372 481 397 435 q 368 635 347 527 l 404 818 q 399 942 422 910 q 302 974 377 974 l 234 974 l 250 1055 l 349 1055 q 561 1038 509 1055 q 639 980 613 1021 q 656 918 656 955 q 642 805 656 881 l 609 636 q 618 494 589 533 q 742 456 647 456 l 784 456 l 767 374 l 725 374 q 587 334 630 374 q 523 193 543 295 l 490 23 q 460 -89 475 -52 q 420 -151 444 -127 q 318 -210 377 -193 q 99 -227 259 -227 l 0 -227 l 17 -145 "},"Ã„":{"x_min":-108.5,"x_max":1011.15625,"ha":1078,"o":"m -108 0 l -92 82 l -10 82 l 552 1012 l 714 1012 l 914 82 l 1011 82 l 995 0 l 521 0 l 537 82 l 636 82 l 593 289 l 212 289 l 87 82 l 208 82 l 192 0 l -108 0 m 261 371 l 575 371 l 495 758 l 261 371 m 433 1134 q 417 1204 408 1163 q 460 1274 425 1244 q 536 1304 495 1304 q 600 1274 576 1304 q 615 1204 623 1244 q 573 1134 607 1163 q 498 1105 539 1105 q 433 1134 457 1105 m 735 1134 q 720 1204 712 1163 q 763 1274 728 1244 q 838 1304 798 1304 q 904 1274 879 1304 q 920 1204 928 1244 q 876 1134 912 1163 q 800 1105 841 1105 q 735 1134 760 1105 "},"Â¸":{"x_min":155.296875,"x_max":483.875,"ha":694,"o":"m 429 0 q 475 -80 463 -43 q 481 -152 488 -117 q 420 -241 470 -210 q 288 -272 370 -272 q 222 -267 256 -272 q 155 -254 189 -263 l 174 -148 q 231 -165 203 -159 q 283 -172 259 -172 q 348 -156 324 -172 q 378 -109 373 -140 q 375 -68 382 -90 q 343 0 368 -45 l 429 0 "},"a":{"x_min":38.0625,"x_max":800.9375,"ha":900,"o":"m 569 593 q 530 634 569 634 q 350 525 439 634 q 276 308 309 475 q 269 134 252 182 q 351 86 287 86 q 454 142 415 86 q 518 324 494 198 l 569 593 m 800 698 l 682 83 l 772 83 l 756 0 l 455 0 l 472 91 q 265 -20 398 -20 q 76 66 134 -20 q 48 303 18 152 q 207 585 77 454 q 567 740 361 740 q 800 698 771 740 "},"=":{"x_min":147,"x_max":1016,"ha":1163,"o":"m 147 358 l 1016 358 l 1016 204 l 147 204 l 147 358 m 147 667 l 1016 667 l 1016 513 l 147 513 l 147 667 "},"N":{"x_min":-36.625,"x_max":1312.9375,"ha":1270,"o":"m -36 0 l -21 82 l 108 82 l 273 931 l 144 931 l 160 1013 l 476 1013 l 948 295 l 1072 931 l 943 931 l 958 1013 l 1312 1013 l 1297 931 l 1167 931 l 986 0 l 809 0 l 330 732 l 204 82 l 332 82 l 317 0 l -36 0 "},"Ãº":{"x_min":88.328125,"x_max":932.21875,"ha":1010,"o":"m 932 721 l 808 82 l 910 82 l 894 0 l 551 0 l 571 101 q 454 8 515 37 q 308 -20 393 -20 q 139 51 187 -20 q 108 170 108 97 q 118 262 108 212 l 191 639 l 88 639 l 103 721 l 447 721 l 365 299 q 349 169 349 215 q 355 128 349 142 q 429 93 370 93 q 546 146 502 93 q 612 316 590 200 l 691 721 l 932 721 m 673 1110 l 862 1110 l 559 856 l 448 856 l 673 1110 "},"2":{"x_min":-6.78125,"x_max":887.765625,"ha":966,"o":"m 231 762 l 150 762 l 192 981 q 364 1018 280 1006 q 530 1031 447 1031 q 816 951 723 1031 q 881 731 908 872 q 787 551 861 631 q 522 363 712 472 l 204 178 l 683 178 l 706 297 l 799 297 l 741 0 l -6 0 l 25 165 l 195 269 q 495 494 413 401 q 600 711 577 587 q 587 890 623 829 q 457 952 550 952 q 320 903 377 952 q 231 762 262 854 "},"Ã¼":{"x_min":88.328125,"x_max":932.21875,"ha":1010,"o":"m 932 721 l 808 82 l 910 82 l 894 0 l 551 0 l 571 101 q 454 8 515 37 q 308 -20 393 -20 q 139 51 187 -20 q 108 170 108 97 q 118 262 108 212 l 191 639 l 88 639 l 103 721 l 447 721 l 365 299 q 349 169 349 215 q 355 128 349 142 q 429 93 370 93 q 546 146 502 93 q 612 316 590 200 l 691 721 l 932 721 m 359 995 q 403 1065 367 1036 q 479 1095 438 1095 q 543 1065 519 1095 q 558 995 566 1036 q 515 925 550 955 q 441 896 481 896 q 376 925 400 896 q 359 995 352 955 m 663 995 q 706 1065 671 1036 q 781 1095 740 1095 q 846 1065 822 1095 q 863 995 871 1036 q 819 925 855 955 q 743 896 784 896 q 679 925 703 896 q 663 995 655 955 "},"Â¯":{"x_min":216.34375,"x_max":668,"ha":694,"o":"m 240 1050 l 668 1050 l 643 922 l 216 922 l 240 1050 "},"Z":{"x_min":-46.109375,"x_max":1055.90625,"ha":1014,"o":"m -46 0 l -27 95 l 736 920 l 251 920 l 222 768 l 129 768 l 177 1013 l 1055 1013 l 1037 917 l 280 93 l 791 93 l 818 234 l 911 234 l 866 0 l -46 0 "},"u":{"x_min":88.328125,"x_max":932.21875,"ha":1010,"o":"m 932 721 l 808 82 l 910 82 l 894 0 l 551 0 l 571 101 q 454 8 515 37 q 308 -20 393 -20 q 139 51 187 -20 q 108 170 108 97 q 118 262 108 212 l 191 639 l 88 639 l 103 721 l 447 721 l 365 299 q 349 169 349 215 q 355 128 349 142 q 429 93 370 93 q 546 146 502 93 q 612 316 590 200 l 691 721 l 932 721 "},"Ã“":{"x_min":44.671875,"x_max":1163.8125,"ha":1210,"o":"m 518 62 q 732 171 647 62 q 859 505 816 280 q 861 839 903 730 q 690 949 819 949 q 476 838 561 949 q 348 505 391 728 q 347 172 305 282 q 518 62 389 62 m 501 -20 q 128 119 246 -20 q 58 505 10 259 q 278 890 105 750 q 706 1031 451 1031 q 1079 891 962 1031 q 1150 505 1197 751 q 929 119 1102 259 q 501 -20 756 -20 m 778 1288 l 967 1288 l 731 1109 l 619 1109 l 778 1288 "},"k":{"x_min":47.46875,"x_max":899.25,"ha":962,"o":"m 287 0 l 47 0 l 236 974 l 134 974 l 149 1055 l 492 1055 l 360 377 l 702 639 l 616 639 l 632 721 l 827 721 l 811 639 l 593 472 l 821 82 l 899 82 l 883 0 l 618 0 l 420 339 l 341 279 l 287 0 "},"Ã™":{"x_min":131.5625,"x_max":1281.0625,"ha":1211,"o":"m 260 930 l 131 930 l 147 1012 l 668 1012 l 652 930 l 522 930 l 424 423 q 432 158 387 234 q 619 83 476 83 q 832 159 759 83 q 942 423 906 235 l 1040 930 l 912 930 l 928 1012 l 1281 1012 l 1264 930 l 1135 930 l 1034 409 q 869 78 989 177 q 513 -20 750 -20 q 196 79 278 -20 q 160 410 114 179 l 260 930 m 760 1288 l 848 1109 l 737 1109 l 571 1288 l 760 1288 "},"â±µ":{"x_min":-33.234375,"x_max":1060.65625,"ha":1082,"o":"m 924 497 l 899 368 l 992 368 l 1060 719 l 967 719 l 942 590 l 472 590 l 538 931 l 668 931 l 684 1013 l 163 1013 l 147 931 l 277 931 l 111 82 l -17 82 l -33 0 l 487 0 l 503 82 l 373 82 l 453 497 l 924 497 "},"Â¢":{"x_min":99.078125,"x_max":875.578125,"ha":966,"o":"m 444 63 l 559 657 q 446 571 489 640 q 375 360 403 503 q 363 149 347 217 q 444 63 379 81 m 810 225 q 691 57 767 118 q 510 -15 615 -3 l 474 -203 l 392 -203 l 427 -18 q 157 81 240 -18 q 109 360 74 181 q 265 638 143 539 q 575 738 386 738 l 610 919 l 692 919 l 657 736 q 748 722 696 736 q 875 683 800 709 l 836 483 l 763 483 q 734 612 763 568 q 642 663 706 656 l 524 59 q 632 111 588 70 q 697 225 675 153 l 810 225 "},"ÃŸ":{"x_min":-105.3125,"x_max":954,"ha":1056,"o":"m 736 828 q 722 945 748 911 q 620 979 696 979 q 505 938 546 979 q 446 807 464 898 l 286 -20 q 174 -202 258 -161 q -105 -264 43 -264 q -89 -188 -97 -226 q -3 -149 -35 -188 q 45 -22 28 -110 l 201 777 q 335 984 227 914 q 623 1055 442 1055 q 877 983 800 1055 q 954 757 954 912 l 933 757 q 768 726 828 757 q 696 634 708 695 q 702 584 691 607 q 762 520 714 560 l 813 478 q 939 337 916 392 q 947 210 962 284 q 830 41 926 102 q 582 -20 734 -20 q 470 -9 528 -20 q 349 20 413 0 l 383 196 l 463 196 q 489 89 463 123 q 579 56 516 56 q 667 86 630 56 q 714 165 704 116 q 631 316 727 236 q 613 331 630 317 l 561 375 q 481 478 502 424 q 475 602 461 531 q 558 749 492 693 q 736 828 623 805 "},"Ã©":{"x_min":46,"x_max":824,"ha":884,"o":"m 583 564 q 499 664 583 664 q 396 603 434 664 q 324 352 358 542 q 339 352 324 352 q 578 516 546 352 q 583 564 583 542 m 308 281 q 304 206 304 256 q 443 56 304 56 q 577 98 521 56 q 662 218 633 139 l 775 218 q 624 37 722 95 q 370 -20 526 -20 q 102 78 183 -20 q 46 256 46 147 q 56 358 46 303 q 213 640 91 539 q 514 740 335 740 q 734 690 644 740 q 824 548 824 639 q 819 510 824 529 q 308 281 777 281 m 634 1111 l 824 1111 l 520 856 l 409 856 l 634 1111 "},"s":{"x_min":-1.09375,"x_max":752.875,"ha":781,"o":"m 37 222 l 114 222 q 114 202 114 211 q 153 96 114 135 q 274 56 193 56 q 451 154 432 56 q 454 186 454 167 q 436 225 454 205 q 351 263 419 245 l 257 288 q 117 360 151 316 q 83 458 83 404 q 87 508 83 481 q 203 683 110 625 q 443 740 295 740 q 752 697 591 740 l 716 515 l 639 515 q 642 539 642 527 q 489 664 642 664 q 318 572 335 664 q 316 545 316 561 q 399 479 316 501 l 492 453 q 664 372 627 418 q 702 269 702 327 q 696 218 702 245 q 574 37 672 95 q 292 -20 476 -20 q -1 20 158 -20 l 37 222 "},"B":{"x_min":-32.546875,"x_max":1092.09375,"ha":1174,"o":"m -32 0 l -16 82 l 112 82 l 278 931 l 148 931 l 164 1013 l 764 1013 q 1030 950 949 1013 q 1086 762 1110 888 q 994 619 1069 672 q 791 552 920 566 q 1009 471 941 538 q 1056 293 1078 404 q 899 71 1027 142 q 530 0 772 0 l -32 0 m 472 590 l 561 590 q 742 632 678 590 q 823 762 807 674 q 794 890 841 850 q 627 931 748 931 l 539 931 l 472 590 m 373 82 l 470 82 q 672 133 600 82 q 766 293 745 185 q 734 455 787 401 q 554 509 682 509 l 457 509 l 373 82 "},"?":{"x_min":143.09375,"x_max":804.59375,"ha":814,"o":"m 155 109 q 210 200 165 162 q 309 238 256 238 q 393 200 362 238 q 413 109 423 162 q 357 17 402 55 q 258 -20 311 -20 q 174 17 205 -20 q 155 109 144 55 m 183 984 q 350 1019 271 1007 q 499 1030 428 1030 q 747 954 670 1030 q 797 738 824 879 q 666 520 770 600 q 394 440 562 440 l 367 295 l 273 295 l 312 498 q 469 589 413 527 q 545 756 525 652 q 533 904 564 854 q 421 954 501 954 q 297 909 346 954 q 225 776 248 864 l 143 776 l 183 984 "},"H":{"x_min":-32.546875,"x_max":1348.875,"ha":1312,"o":"m -32 0 l -16 82 l 112 82 l 278 931 l 148 931 l 164 1013 l 684 1013 l 669 931 l 539 931 l 472 590 l 875 590 l 941 931 l 812 931 l 828 1013 l 1348 1013 l 1333 931 l 1203 931 l 1037 82 l 1167 82 l 1152 0 l 631 0 l 646 82 l 776 82 l 857 497 l 454 497 l 373 82 l 503 82 l 488 0 l -32 0 "},"Ã®":{"x_min":63.0625,"x_max":574.40625,"ha":528,"o":"m 335 82 l 438 82 l 423 0 l 80 0 l 204 639 l 101 639 l 117 721 l 459 721 l 335 82 m 286 1110 l 450 1110 l 574 856 l 463 856 l 348 1008 l 174 856 l 63 856 l 286 1110 "},"c":{"x_min":47,"x_max":822.9375,"ha":846,"o":"m 757 225 q 616 40 707 101 q 387 -20 524 -20 q 108 79 194 -20 q 47 262 47 150 q 57 360 47 308 q 215 640 91 539 q 525 740 340 740 q 675 726 601 740 q 822 683 749 712 l 783 483 l 707 483 q 709 512 709 498 q 680 619 709 582 q 569 664 646 664 q 413 596 468 664 q 324 360 357 528 q 308 212 308 273 q 320 127 308 159 q 442 56 348 56 q 567 100 514 56 q 644 225 619 143 l 757 225 "},"Â¶":{"x_min":148.671875,"x_max":910.109375,"ha":884,"o":"m 533 1013 l 910 1013 l 893 928 l 817 928 l 611 -133 l 507 -133 l 714 928 l 603 928 l 397 -133 l 294 -133 l 405 445 q 196 521 261 445 q 155 723 130 597 q 283 933 180 853 q 533 1013 387 1013 "},"Â¥":{"x_min":40.015625,"x_max":1022,"ha":966,"o":"m 122 0 l 138 82 l 267 82 l 313 317 l 40 317 l 54 396 l 328 396 l 336 436 l 312 528 l 80 528 l 96 607 l 290 607 l 202 931 l 109 931 l 124 1013 l 595 1013 l 579 931 l 464 931 l 566 557 l 813 931 l 710 931 l 726 1013 l 1022 1013 l 1006 931 l 914 931 l 701 607 l 899 607 l 884 528 l 646 528 l 596 449 l 585 396 l 858 396 l 843 317 l 570 317 l 524 82 l 653 82 l 637 0 l 122 0 "},"(":{"x_min":114.65625,"x_max":708.015625,"ha":657,"o":"m 461 -216 q 167 26 248 -131 q 130 419 85 184 q 318 809 176 653 q 708 1055 459 965 l 692 974 q 500 781 572 908 q 383 419 428 653 q 360 57 337 185 q 476 -134 382 -69 l 461 -216 "},"â�£":{"x_min":37.984375,"x_max":1083.03125,"ha":1159,"o":"m 37 -316 l 122 118 l 277 118 l 223 -162 l 873 -162 l 927 118 l 1083 118 l 998 -316 l 37 -316 "},"U":{"x_min":131.5625,"x_max":1281.0625,"ha":1211,"o":"m 260 930 l 131 930 l 147 1012 l 668 1012 l 652 930 l 522 930 l 424 423 q 432 158 387 234 q 619 83 476 83 q 832 159 759 83 q 942 423 906 235 l 1040 930 l 912 930 l 928 1012 l 1281 1012 l 1264 930 l 1135 930 l 1034 409 q 869 78 989 177 q 513 -20 750 -20 q 196 79 278 -20 q 160 410 114 179 l 260 930 "},"Ã‘":{"x_min":-36.625,"x_max":1312.9375,"ha":1270,"o":"m -36 0 l -21 82 l 108 82 l 273 931 l 144 931 l 160 1013 l 476 1013 l 948 295 l 1072 931 l 943 931 l 958 1013 l 1312 1013 l 1297 931 l 1167 931 l 986 0 l 809 0 l 330 732 l 204 82 l 332 82 l 317 0 l -36 0 m 512 1109 l 513 1117 q 575 1246 529 1200 q 688 1291 620 1291 q 779 1264 729 1291 q 786 1260 784 1261 l 831 1237 q 860 1225 849 1229 q 884 1223 872 1223 q 931 1239 912 1223 q 957 1286 952 1256 l 958 1289 l 1032 1289 l 1030 1278 q 969 1152 1014 1196 q 856 1108 925 1108 q 811 1113 833 1108 q 758 1138 790 1119 l 722 1157 q 689 1171 705 1166 q 660 1176 673 1176 q 613 1158 632 1176 q 587 1111 592 1141 l 586 1109 l 512 1109 "},"F":{"x_min":-32.546875,"x_max":1066.765625,"ha":986,"o":"m -32 0 l -16 82 l 112 82 l 278 931 l 148 931 l 164 1013 l 1066 1013 l 1020 774 l 927 774 l 955 920 l 537 920 l 474 595 l 731 595 l 756 723 l 849 723 l 781 374 l 689 374 l 714 503 l 457 503 l 375 82 l 534 82 l 518 0 l -32 0 "},"Â­":{"x_min":57.640625,"x_max":518.796875,"ha":576,"o":"m 92 464 l 518 464 l 483 281 l 57 281 l 92 464 "},":":{"x_min":81.921875,"x_max":429.796875,"ha":513,"o":"m 170 551 q 225 643 181 605 q 323 681 270 681 q 406 642 376 681 q 427 551 437 604 q 372 461 417 498 q 273 424 327 424 q 190 461 220 424 q 170 551 160 498 m 84 109 q 140 200 94 162 q 238 238 185 238 q 321 200 290 238 q 341 109 351 162 q 285 17 330 55 q 187 -20 240 -20 q 104 17 134 -20 q 84 109 73 55 "},"Ã›":{"x_min":131.5625,"x_max":1281.0625,"ha":1211,"o":"m 260 930 l 131 930 l 147 1012 l 668 1012 l 652 930 l 522 930 l 424 423 q 432 158 387 234 q 619 83 476 83 q 832 159 759 83 q 942 423 906 235 l 1040 930 l 912 930 l 928 1012 l 1281 1012 l 1264 930 l 1135 930 l 1034 409 q 869 78 989 177 q 513 -20 750 -20 q 196 79 278 -20 q 160 410 114 179 l 260 930 m 681 1287 l 890 1287 l 1006 1109 l 895 1109 l 772 1217 l 606 1109 l 495 1109 l 681 1287 "},"*":{"x_min":30.59375,"x_max":696.078125,"ha":727,"o":"m 696 822 l 451 708 l 696 592 l 629 487 l 416 649 l 416 386 l 310 386 l 310 649 l 97 487 l 30 592 l 275 708 l 30 822 l 97 929 l 310 765 l 310 1031 l 416 1031 l 416 765 l 629 929 l 696 822 "},"Â°":{"x_min":121,"x_max":573,"ha":695,"o":"m 347 1041 q 433 1023 392 1041 q 507 974 475 1006 q 556 901 539 941 q 573 814 573 860 q 556 727 573 768 q 509 656 539 686 q 434 606 476 623 q 346 589 392 589 q 185 653 250 589 q 121 814 121 718 q 186 975 121 910 q 347 1041 251 1041 m 347 931 q 264 897 298 931 q 231 814 231 863 q 264 732 231 765 q 347 699 298 699 q 430 732 396 699 q 464 814 464 766 q 429 897 464 863 q 347 931 395 931 "},"V":{"x_min":74.59375,"x_max":1195.609375,"ha":1078,"o":"m 1195 1013 l 1180 931 l 1095 931 l 532 0 l 370 0 l 170 931 l 74 931 l 90 1013 l 564 1013 l 549 931 l 450 931 l 593 260 l 999 931 l 878 931 l 894 1013 l 1195 1013 "},"Ã¥":{"x_min":38.0625,"x_max":800.9375,"ha":900,"o":"m 569 593 q 530 634 569 634 q 350 525 439 634 q 276 308 309 475 q 269 134 252 182 q 351 86 287 86 q 454 142 415 86 q 518 324 494 198 l 569 593 m 800 698 l 682 83 l 772 83 l 756 0 l 455 0 l 472 91 q 265 -20 398 -20 q 76 66 134 -20 q 48 303 18 152 q 207 585 77 454 q 567 740 361 740 q 800 698 771 740 m 351 903 q 322 1039 306 959 q 405 1176 337 1119 q 552 1233 472 1233 q 678 1176 632 1233 q 708 1040 724 1120 q 625 903 693 960 q 478 847 558 847 q 351 903 398 847 m 426 1040 q 440 976 419 1002 q 498 951 461 951 q 566 977 535 951 q 604 1040 597 1003 q 590 1102 611 1076 q 532 1129 569 1129 q 464 1102 495 1129 q 426 1040 433 1076 "},"Â ":{"x_min":0,"x_max":0,"ha":484},"0":{"x_min":46.375,"x_max":920.015625,"ha":966,"o":"m 299 132 q 396 59 315 59 q 522 132 478 59 q 625 504 567 206 q 667 875 682 800 q 570 951 651 951 q 444 877 488 951 q 341 504 399 803 q 299 132 284 206 m 381 -20 q 96 115 178 -20 q 65 504 15 250 q 248 894 114 758 q 585 1030 383 1030 q 869 894 788 1030 q 901 504 950 758 q 717 115 851 250 q 381 -20 583 -20 "},"Â¾":{"x_min":10.84375,"x_max":1298.6875,"ha":1449,"o":"m 1243 11 l 891 11 l 904 75 l 988 75 l 1005 157 l 758 157 l 770 216 l 1097 578 l 1268 578 l 1199 221 l 1298 221 l 1286 157 l 1186 157 l 1170 75 l 1255 75 l 1243 11 m 1017 221 l 1061 446 l 854 221 l 1017 221 m 126 1004 q 240 1024 188 1017 q 335 1031 292 1031 q 513 995 457 1031 q 556 891 569 959 q 505 811 547 842 q 392 768 463 779 q 506 719 471 757 q 528 619 541 682 q 435 494 512 536 q 221 453 358 453 q 114 460 167 453 q 10 482 61 467 l 36 618 l 101 618 q 120 537 96 564 q 198 510 144 510 q 294 539 257 510 q 342 623 331 568 q 325 707 353 678 q 236 737 298 737 l 208 737 l 219 794 l 240 794 q 329 817 295 794 q 372 884 363 840 q 358 950 380 926 q 287 974 336 974 q 210 949 242 974 q 167 881 179 924 l 102 881 l 126 1004 m 1085 1031 l 1201 1031 l 362 -19 l 247 -19 l 1085 1031 "},"@":{"x_min":78.546875,"x_max":1319,"ha":1389,"o":"m 857 342 l 867 393 q 852 534 884 481 q 752 588 821 588 q 633 528 685 588 q 560 368 580 469 q 570 208 541 268 q 667 149 600 149 q 788 201 735 149 q 857 342 840 254 m 822 163 q 730 88 783 114 q 615 63 676 63 q 427 144 486 63 q 397 368 369 225 q 515 592 425 511 q 734 674 604 674 q 838 648 795 674 q 902 574 882 622 l 918 659 l 1067 659 l 969 155 q 1140 261 1072 182 q 1231 460 1208 340 q 1228 636 1250 557 q 1142 781 1207 716 q 1012 862 1091 834 q 838 891 933 891 q 669 867 750 891 q 515 796 587 843 q 331 613 404 724 q 231 368 257 502 q 226 170 211 263 q 288 8 241 77 q 431 -113 345 -72 q 628 -155 518 -155 q 793 -131 711 -155 q 953 -63 874 -108 l 979 -127 q 782 -212 882 -184 q 585 -241 682 -241 q 352 -198 453 -241 q 181 -70 250 -155 q 89 126 112 13 q 91 368 66 238 q 183 610 117 498 q 351 807 250 722 q 574 934 455 892 q 832 977 693 977 q 1046 944 953 977 q 1203 844 1138 911 q 1305 673 1279 769 q 1308 458 1331 576 q 1144 167 1271 271 q 824 63 1017 63 l 803 63 l 822 163 "},"Ã¶":{"x_min":47,"x_max":880,"ha":925,"o":"m 404 56 q 523 121 480 56 q 600 360 566 186 q 623 541 623 474 q 616 599 623 576 q 522 664 598 664 q 401 598 445 664 q 324 360 357 533 q 302 182 302 249 q 309 122 302 145 q 404 56 327 56 m 707 81 q 389 -20 579 -20 q 110 81 198 -20 q 47 267 47 154 q 56 360 47 310 q 218 639 91 539 q 537 740 346 740 q 816 640 728 740 q 880 454 880 567 q 869 360 880 410 q 707 81 835 182 m 343 995 q 386 1065 351 1036 q 462 1095 421 1095 q 526 1065 503 1095 q 541 995 549 1036 q 499 925 533 955 q 424 896 464 896 q 359 925 383 896 q 343 995 335 955 m 646 995 q 689 1065 654 1036 q 764 1095 724 1095 q 829 1065 805 1095 q 846 995 854 1036 q 802 925 838 955 q 726 896 767 896 q 662 925 686 896 q 646 995 638 955 "},"i":{"x_min":47.375,"x_max":467,"ha":527,"o":"m 204 924 q 260 1017 215 979 q 360 1055 305 1055 q 444 1017 414 1055 q 467 951 467 989 q 464 924 467 939 q 409 833 454 871 q 310 796 363 796 q 225 833 255 796 q 202 898 202 861 q 204 924 202 911 m 302 82 l 406 82 l 390 0 l 47 0 l 171 639 l 69 639 l 84 721 l 427 721 l 302 82 "},"âž¡":{"x_min":79,"x_max":1112,"ha":1164,"o":"m 79 270 l 79 629 l 788 629 l 788 733 l 829 733 l 1112 452 l 1112 446 l 829 166 l 788 166 l 788 270 l 79 270 "},"Ã•":{"x_min":44.671875,"x_max":1163.8125,"ha":1210,"o":"m 518 62 q 732 171 647 62 q 859 505 816 280 q 861 839 903 730 q 690 949 819 949 q 476 838 561 949 q 348 505 391 728 q 347 172 305 282 q 518 62 389 62 m 501 -20 q 128 119 246 -20 q 58 505 10 259 q 278 890 105 750 q 706 1031 451 1031 q 1079 891 962 1031 q 1150 505 1197 751 q 929 119 1102 259 q 501 -20 756 -20 m 482 1109 l 484 1117 q 545 1245 500 1200 q 659 1290 591 1290 q 750 1263 700 1290 q 757 1259 755 1260 l 802 1237 q 831 1224 819 1228 q 855 1222 842 1222 q 902 1239 882 1222 q 928 1286 922 1256 l 929 1289 l 1003 1289 l 1001 1278 q 940 1151 985 1195 q 827 1107 895 1107 q 782 1113 804 1107 q 729 1137 760 1119 l 693 1156 q 660 1170 676 1165 q 631 1175 644 1175 q 583 1157 603 1175 q 558 1111 563 1140 l 557 1109 l 482 1109 "},"Ã¾":{"x_min":4.453125,"x_max":922,"ha":971,"o":"m 378 396 l 363 324 q 351 209 351 257 q 360 142 351 168 q 454 86 382 86 q 569 145 527 86 q 641 360 611 205 q 660 516 660 457 q 653 575 660 552 q 560 635 634 635 q 445 578 488 635 q 378 396 402 522 m 249 974 l 146 974 l 163 1055 l 506 1055 l 423 629 q 521 713 464 685 q 653 741 577 741 q 876 639 807 741 q 922 470 922 571 q 911 360 922 419 q 768 81 876 183 q 506 -20 660 -20 q 384 7 430 -20 q 318 91 338 35 l 244 -288 l 4 -288 l 249 974 "},"]":{"x_min":-21.015625,"x_max":604.25,"ha":657,"o":"m 604 1055 l 364 -183 l -21 -183 l -5 -102 l 139 -102 l 347 974 l 203 974 l 219 1055 l 604 1055 "},"m":{"x_min":78.296875,"x_max":1381.671875,"ha":1470,"o":"m 888 602 q 1017 707 952 674 q 1159 741 1081 741 q 1332 670 1284 741 q 1362 552 1362 626 q 1351 458 1362 509 l 1278 82 l 1381 82 l 1366 0 l 1022 0 l 1105 422 q 1122 556 1122 510 q 1117 592 1122 580 q 1047 628 1103 628 q 938 578 983 628 q 876 438 894 529 l 791 0 l 550 0 l 633 422 q 650 555 650 509 q 645 592 650 580 q 575 628 631 628 q 466 578 510 628 q 403 438 421 529 l 318 0 l 78 0 l 202 639 l 100 639 l 115 721 l 458 721 l 438 619 q 552 711 492 682 q 687 741 612 741 q 823 707 775 741 q 888 602 872 673 "},"8":{"x_min":19.546875,"x_max":915.21875,"ha":966,"o":"m 652 538 q 818 449 769 518 q 845 268 867 380 q 698 54 818 129 q 379 -20 578 -20 q 89 54 181 -20 q 25 268 -1 129 q 124 449 47 380 q 324 538 200 518 q 181 620 223 562 q 156 765 139 677 q 291 962 181 894 q 584 1030 400 1030 q 851 962 767 1030 q 909 765 934 894 q 827 620 891 677 q 652 538 763 562 m 646 762 q 649 910 667 870 q 568 951 631 951 q 472 910 505 951 q 418 762 439 870 q 415 616 397 656 q 496 577 433 577 q 592 616 559 577 q 646 762 625 656 m 579 280 q 580 451 602 404 q 480 498 558 498 q 362 451 402 498 q 298 280 322 404 q 296 106 273 154 q 395 59 318 59 q 513 106 472 59 q 579 280 554 154 "},"R":{"x_min":-32.546875,"x_max":1080.328125,"ha":1154,"o":"m 735 494 q 829 454 794 485 q 883 364 864 423 l 976 82 l 1080 82 l 1064 0 l 731 0 l 630 305 q 573 426 601 400 q 487 453 545 453 l 446 453 l 373 82 l 503 82 l 488 0 l -32 0 l -16 82 l 112 82 l 278 931 l 148 931 l 164 1013 l 741 1013 q 1000 942 918 1013 q 1057 740 1082 871 q 956 573 1036 634 q 735 494 876 511 m 461 534 l 550 534 q 706 585 645 534 q 786 733 768 637 q 763 880 804 829 q 627 931 722 931 l 539 931 l 461 534 "},"Ã¡":{"x_min":38.0625,"x_max":800.9375,"ha":900,"o":"m 569 593 q 530 634 569 634 q 350 525 439 634 q 276 308 309 475 q 269 134 252 182 q 351 86 287 86 q 454 142 415 86 q 518 324 494 198 l 569 593 m 800 698 l 682 83 l 772 83 l 756 0 l 455 0 l 472 91 q 265 -20 398 -20 q 76 66 134 -20 q 48 303 18 152 q 207 585 77 454 q 567 740 361 740 q 800 698 771 740 m 600 1111 l 789 1111 l 486 856 l 375 856 l 600 1111 "},"Ã—":{"x_min":179.03125,"x_max":984.703125,"ha":1164,"o":"m 984 733 l 686 434 l 984 136 l 880 31 l 581 330 l 283 31 l 179 136 l 478 434 l 179 733 l 283 839 l 581 540 l 880 839 l 984 733 "},"o":{"x_min":47,"x_max":880,"ha":925,"o":"m 404 56 q 523 121 480 56 q 600 360 566 186 q 623 541 623 474 q 616 599 623 576 q 522 664 598 664 q 401 598 445 664 q 324 360 357 533 q 302 182 302 249 q 309 122 302 145 q 404 56 327 56 m 707 81 q 389 -20 579 -20 q 110 81 198 -20 q 47 267 47 154 q 56 360 47 310 q 218 639 91 539 q 537 740 346 740 q 816 640 728 740 q 880 454 880 567 q 869 360 880 410 q 707 81 835 182 "},"5":{"x_min":24.421875,"x_max":883.65625,"ha":966,"o":"m 883 1012 l 849 834 l 307 834 l 263 612 q 373 664 315 646 q 493 682 432 682 q 770 587 680 682 q 828 330 860 492 q 670 72 796 164 q 348 -20 543 -20 q 186 -6 265 -20 q 24 35 107 7 l 67 257 l 148 257 q 171 107 133 156 q 303 59 210 59 q 464 125 403 59 q 552 330 525 192 q 544 532 578 465 q 414 599 509 599 q 318 577 362 599 q 230 511 273 556 l 162 511 l 260 1012 l 883 1012 "},"Ãµ":{"x_min":47,"x_max":880,"ha":925,"o":"m 404 56 q 523 121 480 56 q 600 360 566 186 q 623 541 623 474 q 616 599 623 576 q 522 664 598 664 q 401 598 445 664 q 324 360 357 533 q 302 182 302 249 q 309 122 302 145 q 404 56 327 56 m 707 81 q 389 -20 579 -20 q 110 81 198 -20 q 47 267 47 154 q 56 360 47 310 q 218 639 91 539 q 537 740 346 740 q 816 640 728 740 q 880 454 880 567 q 869 360 880 410 q 707 81 835 182 m 302 888 l 304 898 q 369 1048 322 997 q 484 1100 415 1100 q 531 1091 509 1100 q 581 1061 553 1082 l 623 1030 l 624 1028 q 675 1009 650 1009 q 724 1032 703 1009 q 753 1098 745 1056 l 827 1098 l 825 1087 q 760 936 806 988 q 645 886 714 886 q 597 895 620 886 q 548 924 575 903 l 505 955 l 505 956 q 454 977 478 977 q 405 953 426 977 q 376 888 384 929 l 302 888 "},"7":{"x_min":144.453125,"x_max":949.4375,"ha":966,"o":"m 916 840 l 335 0 l 197 0 l 763 821 l 263 821 l 237 683 l 144 683 l 208 1013 l 949 1013 l 916 840 "},"K":{"x_min":-32.546875,"x_max":1253.25,"ha":1207,"o":"m -32 0 l -16 82 l 112 82 l 278 931 l 148 931 l 164 1013 l 684 1013 l 669 931 l 539 931 l 467 561 l 968 931 l 859 931 l 875 1013 l 1253 1013 l 1237 931 l 1102 931 l 678 618 l 1068 82 l 1167 82 l 1152 0 l 809 0 l 453 491 l 373 82 l 503 82 l 488 0 l -32 0 "},",":{"x_min":-5.421875,"x_max":392.65625,"ha":484,"o":"m -5 -134 q 122 -6 75 -77 q 187 157 169 64 l 199 216 l 392 216 l 391 210 q 278 -47 362 60 q 50 -229 194 -155 l -5 -134 "},"d":{"x_min":15,"x_max":940.359375,"ha":971,"o":"m 558 324 l 572 396 q 585 510 585 463 q 574 578 585 552 q 482 635 553 635 q 366 575 408 635 q 294 360 324 516 q 276 206 276 265 q 282 145 276 168 q 375 86 301 86 q 490 142 446 86 q 558 324 534 198 m 940 1055 l 735 0 l 495 0 l 513 91 q 414 7 471 35 q 281 -20 357 -20 q 60 81 128 -20 q 15 250 15 149 q 26 360 15 301 q 168 639 61 538 q 429 741 275 741 q 551 713 505 741 q 617 629 597 685 l 684 974 l 581 974 l 597 1055 l 940 1055 "},"Â¨":{"x_min":225.40625,"x_max":732.421875,"ha":694,"o":"m 227 995 q 270 1065 235 1036 q 346 1095 305 1095 q 410 1065 387 1095 q 425 995 434 1036 q 383 925 417 955 q 308 896 348 896 q 243 925 267 896 q 227 995 219 955 m 530 995 q 573 1065 538 1036 q 649 1095 608 1095 q 714 1065 689 1095 q 730 995 738 1036 q 686 925 722 955 q 611 896 651 896 q 546 925 570 896 q 530 995 522 955 "},"Ã�?":{"x_min":44.671875,"x_max":1163.8125,"ha":1210,"o":"m 518 62 q 732 171 647 62 q 859 505 816 280 q 861 839 903 730 q 690 949 819 949 q 476 838 561 949 q 348 505 391 728 q 347 172 305 282 q 518 62 389 62 m 501 -20 q 128 119 246 -20 q 58 505 10 259 q 278 890 105 750 q 706 1031 451 1031 q 1079 891 962 1031 q 1150 505 1197 751 q 929 119 1102 259 q 501 -20 756 -20 m 647 1288 l 856 1288 l 972 1109 l 861 1109 l 738 1218 l 572 1109 l 461 1109 l 647 1288 "},"E":{"x_min":-32.546875,"x_max":1074.21875,"ha":1059,"o":"m -32 0 l -16 82 l 112 82 l 278 931 l 148 931 l 164 1013 l 1074 1013 l 1028 774 l 934 774 l 962 920 l 536 920 l 473 595 l 738 595 l 763 723 l 856 723 l 788 374 l 695 374 l 720 503 l 455 503 l 376 92 l 815 92 l 842 238 l 935 238 l 889 0 l -32 0 "},"Y":{"x_min":70.53125,"x_max":1102.703125,"ha":991,"o":"m 140 0 l 155 82 l 292 82 l 358 419 l 156 931 l 70 931 l 86 1013 l 571 1013 l 556 931 l 443 931 l 596 544 l 897 931 l 796 931 l 812 1013 l 1102 1013 l 1087 931 l 1000 931 l 627 454 l 554 82 l 691 82 l 675 0 l 140 0 "},"\"":{"x_min":132,"x_max":591,"ha":723,"o":"m 293 1012 l 293 636 l 132 636 l 132 1012 l 293 1012 m 591 1012 l 591 636 l 430 636 l 430 1012 l 591 1012 "},"Ãª":{"x_min":46,"x_max":824,"ha":884,"o":"m 583 564 q 499 664 583 664 q 396 603 434 664 q 324 352 358 542 q 339 352 324 352 q 578 516 546 352 q 583 564 583 542 m 308 281 q 304 206 304 256 q 443 56 304 56 q 577 98 521 56 q 662 218 633 139 l 775 218 q 624 37 722 95 q 370 -20 526 -20 q 102 78 183 -20 q 46 256 46 147 q 56 358 46 303 q 213 640 91 539 q 514 740 335 740 q 734 690 644 740 q 824 548 824 639 q 819 510 824 529 q 308 281 777 281 m 464 1110 l 628 1110 l 752 856 l 640 856 l 526 1008 l 352 856 l 240 856 l 464 1110 "},"Ã�":{"x_min":-32.546875,"x_max":700.546875,"ha":650,"o":"m -32 0 l -16 82 l 112 82 l 278 931 l 148 931 l 164 1013 l 684 1013 l 669 931 l 539 931 l 373 82 l 503 82 l 488 0 l -32 0 m 211 1134 q 195 1204 187 1163 q 238 1274 203 1244 q 314 1304 273 1304 q 378 1274 354 1304 q 394 1204 402 1244 q 351 1134 385 1163 q 276 1105 317 1105 q 211 1134 236 1105 m 514 1134 q 498 1204 490 1163 q 541 1274 506 1244 q 617 1304 576 1304 q 682 1274 657 1304 q 698 1204 706 1244 q 655 1134 690 1163 q 579 1105 619 1105 q 514 1134 538 1105 "},"Ã‚":{"x_min":-108.5,"x_max":1011.15625,"ha":1078,"o":"m -108 0 l -92 82 l -10 82 l 552 1012 l 714 1012 l 914 82 l 1011 82 l 995 0 l 521 0 l 537 82 l 636 82 l 593 289 l 212 289 l 87 82 l 208 82 l 192 0 l -108 0 m 261 371 l 575 371 l 495 758 l 261 371 m 565 1288 l 774 1288 l 890 1109 l 779 1109 l 656 1218 l 490 1109 l 379 1109 l 565 1288 "},"Ã�":{"x_min":-32.546875,"x_max":687.65625,"ha":650,"o":"m -32 0 l -16 82 l 112 82 l 278 931 l 148 931 l 164 1013 l 684 1013 l 669 931 l 539 931 l 373 82 l 503 82 l 488 0 l -32 0 m 498 1288 l 687 1288 l 450 1109 l 339 1109 l 498 1288 "},"Â´":{"x_min":315.34375,"x_max":729.703125,"ha":694,"o":"m 540 1111 l 729 1111 l 426 856 l 315 856 l 540 1111 "},"Ã¬":{"x_min":80.03125,"x_max":459.796875,"ha":528,"o":"m 335 82 l 438 82 l 423 0 l 80 0 l 204 639 l 101 639 l 117 721 l 459 721 l 335 82 m 284 1111 l 408 856 l 297 856 l 94 1111 l 284 1111 "},"Â±":{"x_min":147,"x_max":1016,"ha":1163,"o":"m 147 154 l 1016 154 l 1016 0 l 147 0 l 147 154 m 660 871 l 660 628 l 1016 628 l 1016 473 l 660 473 l 660 231 l 504 231 l 504 473 l 147 473 l 147 628 l 504 628 l 504 871 l 660 871 "},"Ãš":{"x_min":131.5625,"x_max":1281.0625,"ha":1211,"o":"m 260 930 l 131 930 l 147 1012 l 668 1012 l 652 930 l 522 930 l 424 423 q 432 158 387 234 q 619 83 476 83 q 832 159 759 83 q 942 423 906 235 l 1040 930 l 912 930 l 928 1012 l 1281 1012 l 1264 930 l 1135 930 l 1034 409 q 869 78 989 177 q 513 -20 750 -20 q 196 79 278 -20 q 160 410 114 179 l 260 930 m 812 1288 l 1001 1288 l 764 1109 l 653 1109 l 812 1288 "},"|":{"x_min":179,"x_max":325,"ha":505,"o":"m 325 1061 l 325 -328 l 179 -328 l 179 1061 l 325 1061 "},"â±¬":{"x_min":-20.6875,"x_max":811.75,"ha":789,"o":"m 796 640 l 321 132 q 363 113 339 126 q 503 67 447 67 q 706 165 584 67 l 679 51 q 676 15 673 31 q 682 -42 676 -22 q 689 -100 689 -62 q 660 -176 689 -139 q 567 -249 632 -213 q 399 -296 503 -285 l 346 -179 q 551 -76 551 -144 q 551 -35 551 -58 q 457 -56 500 -56 q 314 -9 403 -56 q 179 40 217 40 q 102 24 141 40 q 46 0 62 8 l -20 0 l -5 82 l 468 589 q 427 608 451 596 q 287 655 343 655 q 84 556 206 655 l 105 663 q 333 778 227 778 q 477 731 386 778 q 611 682 574 682 q 689 697 649 682 q 744 722 728 713 l 811 722 l 796 640 "},"Â§":{"x_min":-0.671875,"x_max":716.140625,"ha":726,"o":"m 716 1000 l 684 838 l 603 838 q 581 925 611 896 q 486 954 552 954 q 395 929 431 954 q 350 858 359 904 q 358 804 344 826 q 427 750 372 782 l 509 701 q 661 578 624 635 q 682 443 698 521 q 620 322 669 372 q 489 242 572 272 q 557 167 539 210 q 562 63 575 124 q 461 -80 545 -28 q 241 -132 377 -132 q 125 -124 185 -132 q 0 -101 65 -116 l 31 61 l 111 61 q 134 -27 104 0 q 236 -55 164 -55 q 331 -30 295 -55 q 377 41 368 -5 q 369 95 383 73 q 300 149 356 118 l 218 198 q 66 322 103 265 q 44 457 29 379 q 107 576 58 527 q 239 656 155 626 q 170 731 189 687 q 164 835 152 774 q 266 979 182 927 q 483 1031 350 1031 q 591 1023 533 1031 q 716 1000 648 1015 m 299 611 q 245 562 265 588 q 218 505 224 536 q 234 429 210 464 q 325 355 258 394 l 427 295 q 484 346 463 319 q 510 401 505 373 q 494 476 518 442 q 400 551 469 511 l 299 611 "},"Ã�":{"x_min":70.53125,"x_max":1102.703125,"ha":991,"o":"m 140 0 l 155 82 l 292 82 l 358 419 l 156 931 l 70 931 l 86 1013 l 571 1013 l 556 931 l 443 931 l 596 544 l 897 931 l 796 931 l 812 1013 l 1102 1013 l 1087 931 l 1000 931 l 627 454 l 554 82 l 691 82 l 675 0 l 140 0 m 668 1288 l 857 1288 l 621 1109 l 509 1109 l 668 1288 "},"b":{"x_min":34.421875,"x_max":896,"ha":971,"o":"m 223 974 l 120 974 l 136 1055 l 479 1055 l 396 629 q 494 713 437 685 q 627 741 551 741 q 849 639 781 741 q 896 470 896 571 q 884 360 896 419 q 741 81 849 183 q 479 -20 633 -20 q 357 7 403 -20 q 292 91 311 35 l 274 0 l 34 0 l 223 974 m 337 324 q 324 209 324 257 q 334 142 324 168 q 427 86 355 86 q 542 145 501 86 q 615 360 584 205 q 634 516 634 457 q 626 575 634 552 q 534 635 608 635 q 418 578 462 635 q 351 396 375 522 l 337 324 "},"q":{"x_min":64.65625,"x_max":923.671875,"ha":971,"o":"m 923 675 l 752 -204 l 861 -204 l 845 -288 l 495 -288 l 570 91 q 335 -20 486 -20 q 113 66 183 -20 q 73 303 44 153 q 280 621 108 488 q 659 741 434 741 q 923 675 842 741 m 668 594 q 620 635 663 635 q 419 526 497 635 q 342 308 371 457 q 339 134 318 183 q 433 86 360 86 q 547 142 503 86 q 615 324 590 198 l 668 594 "},"â±ª":{"x_min":47.75,"x_max":923.890625,"ha":963,"o":"m 371 302 l 342 279 l 287 0 l 47 0 l 236 974 l 134 974 l 150 1055 l 492 1055 l 361 377 l 702 639 l 616 639 l 632 721 l 827 721 l 812 639 l 473 380 l 479 379 q 631 333 599 358 q 685 253 682 294 q 708 107 694 157 q 778 57 723 57 q 857 161 823 57 l 923 144 q 906 80 917 107 q 898 27 898 50 q 904 -42 898 -23 q 911 -88 911 -62 q 882 -176 911 -139 q 789 -249 854 -213 q 620 -297 725 -286 l 567 -179 q 729 -133 688 -159 q 770 -77 770 -107 q 755 -17 770 -58 q 712 -19 734 -19 q 573 24 624 -19 q 502 225 521 68 q 445 283 497 270 l 371 302 "},"Ã–":{"x_min":44.671875,"x_max":1163.8125,"ha":1210,"o":"m 518 62 q 732 171 647 62 q 859 505 816 280 q 861 839 903 730 q 690 949 819 949 q 476 838 561 949 q 348 505 391 728 q 347 172 305 282 q 518 62 389 62 m 501 -20 q 128 119 246 -20 q 58 505 10 259 q 278 890 105 750 q 706 1031 451 1031 q 1079 891 962 1031 q 1150 505 1197 751 q 929 119 1102 259 q 501 -20 756 -20 m 543 1134 q 527 1204 519 1163 q 571 1274 535 1244 q 646 1304 606 1304 q 710 1274 686 1304 q 726 1204 734 1244 q 683 1134 718 1163 q 609 1105 649 1105 q 543 1134 568 1105 m 846 1134 q 830 1204 822 1163 q 874 1274 838 1244 q 949 1304 908 1304 q 1014 1274 990 1304 q 1030 1204 1038 1244 q 987 1134 1022 1163 q 911 1105 952 1105 q 846 1134 870 1105 "},"z":{"x_min":-20.34375,"x_max":812.453125,"ha":789,"o":"m 796 640 l 322 131 q 364 112 344 123 q 503 66 450 66 q 707 164 585 66 l 686 57 q 457 -55 566 -55 q 314 -10 401 -55 q 179 39 217 39 q 102 23 141 39 q 46 -1 63 7 l -20 -1 l -4 81 l 468 589 q 427 608 446 597 q 288 655 341 655 q 84 556 206 655 l 105 663 q 334 776 225 776 q 477 731 390 776 q 612 682 574 682 q 689 697 650 682 q 745 722 729 713 l 812 722 l 796 640 "},"â±¶":{"x_min":80.03125,"x_max":706.65625,"ha":834,"o":"m 385 341 l 320 0 l 80 0 l 204 639 l 101 639 l 117 721 l 459 721 l 402 423 l 706 423 l 690 341 l 385 341 "},"Ã£":{"x_min":38.0625,"x_max":800.9375,"ha":900,"o":"m 569 593 q 530 634 569 634 q 350 525 439 634 q 276 308 309 475 q 269 134 252 182 q 351 86 287 86 q 454 142 415 86 q 518 324 494 198 l 569 593 m 800 698 l 682 83 l 772 83 l 756 0 l 455 0 l 472 91 q 265 -20 398 -20 q 76 66 134 -20 q 48 303 18 152 q 207 585 77 454 q 567 740 361 740 q 800 698 771 740 m 245 888 l 247 898 q 312 1048 266 997 q 427 1100 358 1100 q 475 1092 453 1100 q 524 1062 497 1083 l 566 1030 l 568 1028 q 619 1009 594 1009 q 668 1033 646 1009 q 697 1099 689 1057 l 771 1099 l 769 1088 q 704 937 750 988 q 589 886 658 886 q 541 895 564 886 q 492 924 519 903 l 449 955 l 448 956 q 398 977 422 977 q 349 953 370 977 q 320 888 328 929 l 245 888 "},"â§«":{"x_min":4.0625,"x_max":682.234375,"ha":686,"o":"m 343 1121 l 682 401 l 343 -323 l 4 401 l 343 1121 "},"Ã¦":{"x_min":38,"x_max":1234,"ha":1294,"o":"m 993 563 q 908 664 993 664 q 808 606 844 664 q 741 393 773 549 l 734 352 q 988 516 959 352 q 993 563 993 541 m 568 593 q 529 634 568 634 q 349 525 438 634 q 285 356 308 475 q 262 195 262 238 q 268 134 262 152 q 349 86 286 86 q 452 142 413 86 q 516 324 492 198 l 568 593 m 770 718 q 924 740 841 740 q 1144 689 1054 740 q 1234 547 1234 639 q 1229 509 1234 529 q 718 281 1187 281 q 713 234 713 256 q 853 56 713 56 q 987 98 931 56 q 1072 218 1043 139 l 1185 218 q 1034 37 1132 95 q 776 -20 936 -20 q 533 55 616 -20 q 265 -20 434 -20 q 76 66 134 -20 q 38 209 38 123 q 199 577 38 415 q 567 740 361 740 q 770 718 714 740 "},"Â®":{"x_min":192,"x_max":1197,"ha":1389,"o":"m 791 511 q 837 485 817 503 q 871 440 858 467 l 938 295 l 978 295 l 978 239 l 828 239 l 748 411 q 706 471 727 456 q 649 486 686 486 l 632 486 l 632 295 l 690 295 l 690 239 l 440 239 l 440 295 l 498 295 l 498 730 l 440 730 l 440 786 l 747 786 q 876 748 829 786 q 923 646 923 711 q 889 551 923 586 q 791 511 855 517 m 632 542 l 677 542 q 760 566 731 542 q 789 636 789 590 q 760 706 789 681 q 677 730 731 730 l 632 730 l 632 542 m 502 969 q 694 1007 591 1007 q 886 969 797 1007 q 1049 858 975 932 q 1160 695 1123 784 q 1197 502 1197 606 q 1160 310 1197 399 q 1049 148 1123 222 q 886 37 975 74 q 694 0 797 0 q 502 37 591 0 q 339 148 413 74 q 228 310 265 222 q 192 502 192 399 q 228 695 192 606 q 339 858 265 784 q 502 969 413 932 m 846 873 q 694 903 776 903 q 542 873 612 903 q 412 784 471 843 q 325 656 354 726 q 296 502 296 585 q 325 349 296 419 q 412 220 354 279 q 541 133 470 162 q 694 104 612 104 q 847 132 777 104 q 976 220 917 161 q 1063 349 1034 279 q 1093 502 1093 419 q 1063 656 1093 585 q 976 784 1034 726 q 846 873 916 844 "},"Ã‰":{"x_min":-32.546875,"x_max":1074.21875,"ha":1059,"o":"m -32 0 l -16 82 l 112 82 l 278 931 l 148 931 l 164 1013 l 1074 1013 l 1028 774 l 934 774 l 962 920 l 536 920 l 473 595 l 738 595 l 763 723 l 856 723 l 788 374 l 695 374 l 720 503 l 455 503 l 376 92 l 815 92 l 842 238 l 935 238 l 889 0 l -32 0 m 726 1288 l 915 1288 l 678 1109 l 567 1109 l 726 1288 "},"~":{"x_min":147,"x_max":1016,"ha":1163,"o":"m 1016 563 l 1016 424 q 889 337 952 365 q 757 310 826 310 q 590 349 693 310 q 573 355 578 353 q 559 361 568 357 q 377 406 443 406 q 268 381 325 406 q 147 307 212 356 l 147 446 q 274 533 212 505 q 405 561 337 561 q 572 522 469 561 q 589 515 584 517 l 599 511 q 785 465 717 465 q 894 489 837 465 q 1016 563 950 514 "},"Â³":{"x_min":10.84375,"x_max":559.1875,"ha":608,"o":"m 126 1004 q 240 1024 188 1017 q 335 1031 292 1031 q 513 995 457 1031 q 556 891 569 959 q 505 811 547 842 q 392 768 463 779 q 506 719 471 757 q 528 619 541 682 q 435 494 512 536 q 221 453 358 453 q 114 460 167 453 q 10 482 61 467 l 36 618 l 101 618 q 120 536 96 563 q 198 510 144 510 q 294 539 257 510 q 342 623 331 568 q 325 707 353 678 q 236 737 298 737 l 208 737 l 219 794 l 240 794 q 329 817 295 794 q 372 883 363 840 q 358 950 380 926 q 287 974 336 974 q 210 949 242 974 q 167 880 179 924 l 102 880 l 126 1004 "},"Â¡":{"x_min":77.765625,"x_max":519.25,"ha":610,"o":"m 488 992 q 508 901 519 954 q 453 811 498 848 q 355 774 408 774 q 271 811 301 774 q 252 901 241 848 q 307 993 262 955 q 405 1031 352 1031 q 488 992 458 1031 m 347 0 l 77 0 l 268 571 l 293 700 l 387 700 l 347 571 l 347 0 "},"[":{"x_min":53.578125,"x_max":678.171875,"ha":657,"o":"m 293 1055 l 678 1055 l 662 974 l 518 974 l 309 -102 l 453 -102 l 438 -183 l 53 -183 l 293 1055 "},"â±§":{"x_min":-12.40625,"x_max":1369.015625,"ha":1312,"o":"m -12 0 l 3 82 l 133 82 l 298 931 l 168 931 l 184 1013 l 705 1013 l 689 931 l 559 931 l 492 590 l 895 590 l 962 931 l 832 931 l 848 1013 l 1369 1013 l 1353 931 l 1223 931 l 1058 82 l 1188 82 l 1130 -218 l 1053 -218 q 1053 -96 1053 -216 q 998 0 1065 0 l 651 0 l 667 82 l 797 82 l 878 497 l 475 497 l 394 82 l 524 82 l 508 0 l -12 0 "},"L":{"x_min":-32.546875,"x_max":897.21875,"ha":977,"o":"m -32 0 l -16 82 l 112 82 l 278 931 l 148 931 l 164 1013 l 684 1013 l 669 931 l 539 931 l 376 92 l 775 92 l 805 252 l 897 252 l 848 0 l -32 0 "}," ":{"x_min":0,"x_max":0,"ha":484},"%":{"x_min":73.34375,"x_max":1245.875,"ha":1320,"o":"m 388 962 q 317 914 345 962 q 267 755 288 867 q 254 594 244 641 q 307 547 264 547 q 380 594 351 547 q 430 755 408 641 q 442 914 452 867 q 388 962 432 962 m 402 1031 q 586 960 531 1031 q 615 755 641 889 q 506 550 589 621 q 295 479 424 479 q 110 550 166 479 q 81 755 55 621 q 190 960 107 889 q 402 1031 273 1031 m 1020 1031 l 1137 1031 l 299 -20 l 182 -20 l 1020 1031 m 1024 532 q 1208 461 1153 532 q 1237 257 1263 390 q 1128 51 1211 123 q 916 -20 1046 -20 q 733 51 788 -20 q 704 257 678 123 q 812 461 730 390 q 1024 532 895 532 m 1065 416 q 1011 464 1055 464 q 938 416 967 464 q 889 257 910 369 q 876 96 866 143 q 930 49 887 49 q 1002 96 974 49 q 1053 257 1030 143 q 1065 416 1074 369 "},"P":{"x_min":-32.546875,"x_max":1057.484375,"ha":1044,"o":"m -32 0 l -16 82 l 112 82 l 278 931 l 148 931 l 164 1013 l 740 1013 q 993 932 909 1013 q 1051 717 1077 852 q 909 500 1024 581 q 625 419 793 419 l 439 419 l 373 82 l 537 82 l 521 0 l -32 0 m 455 501 l 531 501 q 683 559 619 501 q 766 717 747 618 q 744 872 785 814 q 615 931 703 931 l 539 931 l 455 501 "},"Ã€":{"x_min":-108.5,"x_max":1011.15625,"ha":1078,"o":"m -108 0 l -92 82 l -10 82 l 552 1012 l 714 1012 l 914 82 l 1011 82 l 995 0 l 521 0 l 537 82 l 636 82 l 593 289 l 212 289 l 87 82 l 208 82 l 192 0 l -108 0 m 261 371 l 575 371 l 495 758 l 261 371 m 644 1288 l 732 1109 l 621 1109 l 455 1288 l 644 1288 "},"_":{"x_min":0,"x_max":694,"ha":694,"o":"m 694 -199 l 694 -328 l 0 -328 l 0 -199 l 694 -199 "},"Ã±":{"x_min":78.40625,"x_max":921.65625,"ha":1010,"o":"m 78 0 l 202 639 l 100 639 l 115 721 l 458 721 l 438 619 q 555 712 494 683 q 701 741 616 741 q 870 668 822 741 q 902 550 902 623 q 891 458 902 508 l 818 82 l 921 82 l 906 0 l 563 0 l 653 465 q 663 545 663 512 q 654 592 663 575 q 580 628 638 628 q 463 574 508 628 q 397 405 419 521 l 318 0 l 78 0 m 332 888 l 334 898 q 399 1048 353 997 q 514 1100 445 1100 q 561 1091 539 1100 q 611 1062 584 1083 l 653 1031 l 654 1029 q 705 1010 681 1010 q 754 1033 733 1010 q 783 1098 775 1057 l 857 1098 l 855 1087 q 790 937 836 989 q 675 887 744 887 q 628 895 650 887 q 578 924 606 903 l 536 955 l 535 956 q 484 977 509 977 q 435 953 456 977 q 406 888 414 929 l 332 888 "},"+":{"x_min":147,"x_max":1016,"ha":1163,"o":"m 660 871 l 660 514 l 1016 514 l 1016 358 l 660 358 l 660 1 l 504 1 l 504 358 l 147 358 l 147 514 l 504 514 l 504 871 l 660 871 "},"Â½":{"x_min":54.9375,"x_max":1305.765625,"ha":1449,"o":"m 54 464 l 67 528 l 178 528 l 259 943 l 122 875 l 135 946 l 302 1031 l 456 1031 l 358 528 l 469 528 l 457 464 l 54 464 m 1085 1031 l 1201 1031 l 362 -20 l 247 -20 l 1085 1031 m 903 418 l 839 418 l 865 550 q 969 570 916 563 q 1076 578 1022 578 q 1258 534 1199 578 q 1302 413 1317 491 q 1246 314 1291 358 q 1083 209 1201 270 l 899 115 l 1180 115 l 1192 180 l 1260 180 l 1227 11 l 755 11 l 773 100 l 871 157 q 1057 288 1014 241 q 1112 399 1100 336 q 1102 488 1123 456 q 1030 521 1080 521 q 953 492 988 521 q 903 418 918 464 "},"Ã†":{"x_min":-140.375,"x_max":1450.609375,"ha":1436,"o":"m 246 370 l 561 370 l 670 931 l 619 931 l 246 370 m 360 0 l 376 82 l 505 82 l 545 288 l 191 288 l 54 82 l 165 82 l 149 0 l -140 0 l -124 82 l -47 82 l 519 931 l 383 931 l 398 1013 l 1450 1013 l 1404 774 l 1310 774 l 1338 920 l 930 920 l 867 595 l 1116 595 l 1141 723 l 1232 723 l 1165 374 l 1073 374 l 1098 503 l 849 503 l 770 92 l 1192 92 l 1220 238 l 1312 238 l 1266 0 l 360 0 "},"Ã‹":{"x_min":-32.546875,"x_max":1074.21875,"ha":1059,"o":"m -32 0 l -16 82 l 112 82 l 278 931 l 148 931 l 164 1013 l 1074 1013 l 1028 774 l 934 774 l 962 920 l 536 920 l 473 595 l 738 595 l 763 723 l 856 723 l 788 374 l 695 374 l 720 503 l 455 503 l 376 92 l 815 92 l 842 238 l 935 238 l 889 0 l -32 0 m 491 1134 q 475 1204 467 1163 q 518 1274 483 1244 q 594 1304 554 1304 q 658 1274 634 1304 q 674 1204 682 1244 q 631 1134 665 1163 q 556 1105 597 1105 q 491 1134 516 1105 m 794 1134 q 778 1204 770 1163 q 821 1274 786 1244 q 897 1304 856 1304 q 962 1274 937 1304 q 978 1204 986 1244 q 935 1134 970 1163 q 859 1105 899 1105 q 794 1134 818 1105 "},"'":{"x_min":132,"x_max":293,"ha":425,"o":"m 293 1012 l 293 636 l 132 636 l 132 1012 l 293 1012 "},"Âª":{"x_min":9.65625,"x_max":608.125,"ha":676,"o":"m 448 770 l 456 815 q 463 868 463 844 q 448 931 463 906 q 392 963 430 963 q 373 960 383 963 q 280 894 322 951 q 222 750 239 836 q 215 681 215 712 q 227 617 215 642 q 282 580 244 580 q 299 581 290 580 q 392 643 351 592 q 448 770 433 694 m 401 528 l 418 615 q 345 540 387 569 q 258 501 304 510 q 214 497 234 497 q 116 543 149 497 q 89 646 89 581 q 97 727 89 682 q 191 931 122 851 q 360 1030 261 1012 q 392 1034 377 1034 q 439 1024 419 1034 q 487 971 473 1009 l 498 1031 l 608 1031 l 530 630 l 608 630 l 588 528 l 401 528 m 27 434 l 568 434 l 550 342 l 9 342 l 27 434 "},"Ã°":{"x_min":13.828125,"x_max":878.640625,"ha":926,"o":"m 681 906 q 831 668 789 805 q 842 377 872 532 q 678 85 806 190 q 358 -20 549 -20 q 81 79 171 -20 q 22 344 -9 178 q 180 602 52 500 q 474 705 308 705 q 531 700 502 705 q 587 688 559 696 q 567 768 581 731 q 527 841 552 806 l 291 740 l 270 808 l 477 896 q 398 943 446 922 q 286 980 351 964 l 319 1055 q 487 1018 412 1043 q 616 956 561 993 l 860 1061 l 878 991 l 681 906 m 585 603 q 534 622 559 616 q 488 629 510 629 q 369 564 413 629 q 294 344 324 499 q 282 121 263 185 q 377 56 302 56 q 496 120 452 56 q 570 344 540 184 q 585 481 585 416 q 585 603 585 546 "},"T":{"x_min":65.109375,"x_max":1117.625,"ha":1034,"o":"m 153 0 l 168 82 l 303 82 l 465 920 l 188 920 l 158 759 l 65 759 l 113 1013 l 1117 1013 l 1068 759 l 977 759 l 1007 920 l 728 920 l 565 82 l 700 82 l 684 0 l 153 0 "},"Ãž":{"x_min":-32.546875,"x_max":1019.046875,"ha":1051,"o":"m -32 0 l -16 82 l 112 82 l 278 931 l 148 931 l 164 1013 l 716 1013 l 701 931 l 539 931 l 516 815 l 702 815 q 955 734 871 815 q 1012 519 1038 654 q 871 303 986 384 q 587 223 755 223 l 401 223 l 373 82 l 537 82 l 521 0 l -32 0 m 417 305 l 493 305 q 645 363 581 305 q 728 519 709 421 q 706 675 747 617 q 576 733 665 733 l 500 733 l 417 305 "},"j":{"x_min":-230.09375,"x_max":491,"ha":503,"o":"m 228 924 q 284 1017 239 979 q 384 1055 329 1055 q 468 1017 437 1055 q 491 951 491 988 q 488 924 491 939 q 433 833 478 871 q 334 796 387 796 q 249 833 279 796 q 226 898 226 861 q 228 924 226 911 m 200 639 l 98 639 l 114 721 l 457 721 l 300 -85 q 189 -252 278 -195 q -52 -309 100 -309 q -138 -302 -93 -309 q -230 -282 -183 -295 l -200 -130 l -123 -130 q -127 -166 -127 -150 q -117 -207 -127 -193 q -57 -232 -101 -232 q 18 -200 -7 -232 q 60 -85 44 -168 l 200 639 "},"â±·":{"x_min":58,"x_max":1199,"ha":1257,"o":"m 690 72 q 726 82 712 76 q 845 161 799 112 q 932 391 898 216 q 949 530 949 475 q 942 589 949 565 q 879 664 923 664 q 773 498 805 664 l 690 72 m 676 3 l 435 3 q 257 18 293 3 q 140 87 179 50 q 69 211 102 124 q 58 287 58 243 q 67 378 58 328 q 178 587 90 498 q 393 721 265 676 l 480 721 l 474 691 q 398 589 450 674 q 331 391 356 519 q 316 251 316 311 q 328 161 316 197 q 413 82 354 91 q 451 77 442 77 l 533 498 q 752 721 567 673 q 887 741 826 741 q 999 721 949 741 q 1163 588 1125 668 q 1199 439 1199 513 q 1192 380 1199 410 q 1127 214 1172 275 q 1007 90 1060 127 q 864 20 961 58 q 676 3 819 3 "},"1":{"x_min":90.203125,"x_max":743.953125,"ha":966,"o":"m 90 0 l 106 82 l 296 82 l 455 901 l 220 776 l 240 877 l 524 1030 l 737 1030 l 553 82 l 743 82 l 727 0 l 90 0 "},"Ã¤":{"x_min":38.0625,"x_max":800.9375,"ha":900,"o":"m 569 593 q 530 634 569 634 q 350 525 439 634 q 276 308 309 475 q 269 134 252 182 q 351 86 287 86 q 454 142 415 86 q 518 324 494 198 l 569 593 m 800 698 l 682 83 l 772 83 l 756 0 l 455 0 l 472 91 q 265 -20 398 -20 q 76 66 134 -20 q 48 303 18 152 q 207 585 77 454 q 567 740 361 740 q 800 698 771 740 m 286 995 q 330 1065 295 1036 q 406 1095 365 1095 q 470 1065 446 1095 q 485 995 493 1036 q 442 925 477 955 q 368 896 408 896 q 303 925 327 896 q 286 995 279 955 m 590 995 q 633 1065 598 1036 q 708 1095 668 1095 q 773 1065 749 1095 q 790 995 798 1036 q 746 925 782 955 q 670 896 711 896 q 606 925 630 896 q 590 995 582 955 "},"<":{"x_min":147,"x_max":1016,"ha":1163,"o":"m 1016 664 l 352 434 l 1016 206 l 1016 44 l 147 359 l 147 512 l 1016 826 l 1016 664 "},"Â£":{"x_min":0,"x_max":941.984375,"ha":966,"o":"m 904 815 l 823 815 q 805 917 832 880 q 722 954 779 954 q 598 903 642 954 q 531 734 554 853 l 495 553 l 734 553 l 718 471 l 479 471 l 406 92 l 691 92 l 720 247 l 813 247 l 765 0 l 0 0 l 16 82 l 147 82 l 222 471 l 91 471 l 107 553 l 238 553 l 275 740 q 408 959 303 887 q 698 1031 512 1031 q 802 1024 742 1031 q 941 1007 862 1018 l 904 815 "},"Â¹":{"x_min":54.9375,"x_max":469.96875,"ha":608,"o":"m 54 464 l 67 528 l 178 528 l 259 943 l 122 875 l 135 946 l 302 1031 l 456 1031 l 358 528 l 469 528 l 457 464 l 54 464 "},"t":{"x_min":67.5,"x_max":627.3125,"ha":641,"o":"m 171 639 l 67 639 l 83 721 l 187 721 l 230 944 l 470 944 l 427 721 l 627 721 l 611 639 l 411 639 l 325 197 q 314 106 314 136 q 317 79 314 87 q 367 56 328 56 q 437 85 410 56 q 477 176 463 114 l 578 176 q 489 23 551 67 q 297 -20 428 -20 q 105 26 149 -20 q 77 119 77 56 q 85 197 77 152 l 171 639 "},"Â¬":{"x_min":146.875,"x_max":1016,"ha":1163,"o":"m 146 613 l 1016 613 l 1016 195 l 861 195 l 861 459 l 146 459 l 146 613 "},"Ã¹":{"x_min":88.328125,"x_max":932.21875,"ha":1010,"o":"m 932 721 l 808 82 l 910 82 l 894 0 l 551 0 l 571 101 q 454 8 515 37 q 308 -20 393 -20 q 139 51 187 -20 q 108 170 108 97 q 118 262 108 212 l 191 639 l 88 639 l 103 721 l 447 721 l 365 299 q 349 169 349 215 q 355 128 349 142 q 429 93 370 93 q 546 146 502 93 q 612 316 590 200 l 691 721 l 932 721 m 500 1111 l 625 856 l 513 856 l 310 1111 l 500 1111 "},"W":{"x_min":70.53125,"x_max":1674.40625,"ha":1560,"o":"m 1085 0 l 910 0 l 823 737 l 451 0 l 276 0 l 168 931 l 70 931 l 86 1013 l 566 1013 l 550 931 l 442 931 l 514 309 l 869 1013 l 1062 1013 l 1145 297 l 1466 931 l 1345 931 l 1361 1013 l 1674 1013 l 1658 931 l 1555 931 l 1085 0 "},"Ã¯":{"x_min":80.03125,"x_max":649,"ha":528,"o":"m 335 82 l 438 82 l 423 0 l 80 0 l 204 639 l 101 639 l 117 721 l 459 721 l 335 82 m 143 995 q 187 1065 151 1036 q 263 1095 222 1095 q 327 1065 303 1095 q 342 995 350 1036 q 299 925 334 955 q 225 896 265 896 q 160 925 184 896 q 143 995 136 955 m 446 995 q 490 1065 455 1036 q 565 1095 524 1095 q 630 1065 606 1095 q 646 995 655 1036 q 603 925 639 955 q 527 896 568 896 q 463 925 486 896 q 446 995 439 955 "},">":{"x_min":147,"x_max":1016,"ha":1163,"o":"m 147 664 l 147 826 l 1016 512 l 1016 359 l 147 44 l 147 206 l 810 434 l 147 664 "},"v":{"x_min":29.28125,"x_max":818,"ha":807,"o":"m 432 0 l 240 0 l 108 639 l 29 639 l 44 721 l 338 721 l 449 183 q 575 328 466 183 q 719 639 675 466 l 640 639 l 656 722 l 818 722 q 681 326 818 552 q 432 0 553 111 "},"Ã»":{"x_min":88.328125,"x_max":932.21875,"ha":1010,"o":"m 932 721 l 808 82 l 910 82 l 894 0 l 551 0 l 571 101 q 454 8 515 37 q 308 -20 393 -20 q 139 51 187 -20 q 108 170 108 97 q 118 262 108 212 l 191 639 l 88 639 l 103 721 l 447 721 l 365 299 q 349 169 349 215 q 355 128 349 142 q 429 93 370 93 q 546 146 502 93 q 612 316 590 200 l 691 721 l 932 721 m 502 1110 l 667 1110 l 790 856 l 679 856 l 564 1008 l 390 856 l 279 856 l 502 1110 "},"Ã’":{"x_min":44.671875,"x_max":1163.8125,"ha":1210,"o":"m 518 62 q 732 171 647 62 q 859 505 816 280 q 861 839 903 730 q 690 949 819 949 q 476 838 561 949 q 348 505 391 728 q 347 172 305 282 q 518 62 389 62 m 501 -20 q 128 119 246 -20 q 58 505 10 259 q 278 890 105 750 q 706 1031 451 1031 q 1079 891 962 1031 q 1150 505 1197 751 q 929 119 1102 259 q 501 -20 756 -20 m 726 1288 l 814 1109 l 703 1109 l 537 1288 l 726 1288 "},"&":{"x_min":10,"x_max":1239.109375,"ha":1254,"o":"m 1130 0 l 805 0 l 737 88 q 570 7 658 34 q 386 -20 483 -20 q 85 66 182 -20 q 10 238 10 133 q 16 305 10 270 q 111 494 37 416 q 321 628 185 572 q 287 715 296 674 q 282 760 282 738 q 285 795 282 778 q 412 969 307 907 q 687 1031 518 1031 q 802 1022 737 1031 q 948 999 867 1014 l 907 787 l 820 787 q 820 806 820 796 q 792 910 820 876 q 687 949 760 949 q 573 916 618 949 q 516 827 527 883 q 515 812 515 820 q 601 641 515 749 q 618 622 612 628 l 867 295 q 951 401 916 341 q 1007 539 986 462 l 1023 620 l 1239 620 l 1223 539 l 1104 539 q 1027 363 1072 439 q 919 227 981 286 l 1031 82 l 1146 82 l 1130 0 m 686 154 l 380 553 q 305 457 334 508 q 265 349 276 405 q 259 289 259 317 q 301 160 259 214 q 469 87 358 87 q 576 103 522 87 q 686 154 629 120 "},"Ã�":{"x_min":-23.734375,"x_max":1168.796875,"ha":1214,"o":"m 383 82 l 477 82 q 729 183 636 82 q 864 507 821 284 q 854 829 908 728 q 642 931 801 931 l 548 931 l 479 577 l 704 577 l 686 484 l 461 484 l 383 82 m -23 0 l -8 82 l 122 82 l 200 484 l 55 484 l 73 577 l 218 577 l 287 931 l 157 931 l 172 1013 l 693 1013 q 1084 883 965 1013 q 1154 507 1203 753 q 937 130 1107 261 q 497 0 768 0 l -23 0 "},"I":{"x_min":-32.546875,"x_max":684.953125,"ha":650,"o":"m -32 0 l -16 82 l 112 82 l 278 931 l 148 931 l 164 1013 l 684 1013 l 669 931 l 539 931 l 373 82 l 503 82 l 488 0 l -32 0 "},"G":{"x_min":44.84375,"x_max":1126.3125,"ha":1186,"o":"m 990 694 q 929 888 990 828 q 739 949 869 949 q 487 842 581 949 q 348 505 393 735 q 353 169 304 277 q 552 62 403 62 q 660 74 609 62 q 757 113 711 87 l 810 392 l 688 392 l 705 473 l 1070 473 l 994 84 q 751 5 869 31 q 513 -20 632 -20 q 132 120 253 -20 q 58 505 10 260 q 281 890 105 750 q 718 1031 458 1031 q 927 1009 827 1031 q 1126 943 1028 987 l 1078 694 l 990 694 "},"`":{"x_min":178.359375,"x_max":492.34375,"ha":694,"o":"m 367 1111 l 492 856 l 381 856 l 178 1111 l 367 1111 "},"Â·":{"x_min":102.40625,"x_max":373.5,"ha":484,"o":"m 132 391 q 112 482 102 429 q 168 573 122 535 q 266 611 213 611 q 350 573 320 611 q 370 482 381 535 q 315 391 360 429 q 216 354 269 354 q 132 391 163 354 "},"r":{"x_min":77.796875,"x_max":815.65625,"ha":732,"o":"m 815 729 l 773 514 l 696 514 q 699 540 699 528 q 682 599 699 578 q 609 628 661 628 q 471 558 530 628 q 389 366 412 489 l 317 0 l 77 0 l 201 639 l 92 639 l 107 721 l 457 721 l 433 592 q 547 704 482 668 q 696 741 612 741 q 747 737 718 741 q 815 729 777 734 "},"Â¿":{"x_min":9.21875,"x_max":670.703125,"ha":814,"o":"m 638 992 q 658 901 669 954 q 603 811 648 848 q 505 774 558 774 q 421 811 451 774 q 401 901 391 848 q 457 993 412 955 q 555 1031 502 1031 q 638 992 608 1031 m 630 26 q 463 -8 541 3 q 314 -20 385 -20 q 66 55 143 -20 q 16 271 -10 131 q 147 490 43 410 q 419 570 250 570 l 446 715 l 540 715 l 501 512 q 344 420 401 483 q 267 254 288 357 q 280 106 248 155 q 393 56 311 56 q 516 101 467 56 q 589 234 565 146 l 670 234 l 630 26 "},"Ã½":{"x_min":-26.078125,"x_max":886.0625,"ha":807,"o":"m 336 -185 l 144 639 l 66 639 l 82 721 l 376 721 l 538 23 q 668 263 616 136 q 772 637 720 390 l 675 637 l 691 720 l 886 720 q 844 521 869 633 q 709 118 784 246 q 350 -274 510 -213 q 130 -309 260 -309 q -26 -279 66 -309 l 3 -129 l 79 -129 q 77 -159 77 -145 q 108 -221 77 -206 q 152 -231 123 -227 q 184 -234 168 -234 q 336 -185 260 -234 m 597 1110 l 787 1110 l 483 856 l 372 856 l 597 1110 "},"x":{"x_min":-24.421875,"x_max":840.9375,"ha":828,"o":"m 507 459 l 743 720 l 840 720 l 532 381 l 688 82 l 783 82 l 768 0 l 461 0 l 320 271 l 71 0 l -24 0 l 292 351 l 142 639 l 61 639 l 77 721 l 370 721 l 507 459 "},"Ã¨":{"x_min":46,"x_max":824,"ha":884,"o":"m 583 564 q 499 664 583 664 q 396 603 434 664 q 324 352 358 542 q 339 352 324 352 q 578 516 546 352 q 583 564 583 542 m 308 281 q 304 206 304 256 q 443 56 304 56 q 577 98 521 56 q 662 218 633 139 l 775 218 q 624 37 722 95 q 370 -20 526 -20 q 102 78 183 -20 q 46 256 46 147 q 56 358 46 303 q 213 640 91 539 q 514 740 335 740 q 734 690 644 740 q 824 548 824 639 q 819 510 824 529 q 308 281 777 281 m 461 1110 l 586 856 l 475 856 l 272 1110 l 461 1110 "},"Âº":{"x_min":9.5,"x_max":674.6875,"ha":694,"o":"m 27 434 l 568 434 l 550 342 l 9 342 l 27 434 m 322 558 q 405 606 373 558 q 459 765 438 654 q 467 924 480 876 q 402 973 454 973 q 319 925 350 973 q 265 765 287 877 q 256 605 243 653 q 322 558 269 558 m 549 570 q 311 500 455 500 q 100 570 167 500 q 56 765 32 641 q 175 960 80 889 q 414 1031 270 1031 q 625 960 558 1031 q 668 765 692 889 q 549 570 644 641 "},"Ã˜":{"x_min":-50.421875,"x_max":1259.796875,"ha":1210,"o":"m 328 324 l 876 784 q 816 907 863 865 q 690 949 769 949 q 477 838 561 949 q 349 505 392 728 q 333 408 338 453 q 328 324 328 364 m 333 226 q 394 102 347 143 q 519 62 440 62 q 737 175 652 62 q 869 531 822 288 q 878 610 878 575 q 877 673 878 644 l 333 226 m 1099 868 q 1159 707 1146 797 q 1150 505 1172 616 q 930 119 1103 259 q 502 -20 757 -20 q 310 6 395 -20 q 164 85 226 32 l 0 -53 l -50 7 l 111 144 q 50 303 63 213 q 58 505 37 394 q 279 890 106 750 q 707 1031 452 1031 q 900 1004 815 1031 q 1046 926 985 978 l 1210 1064 l 1259 1003 l 1099 868 "},"Ã·":{"x_min":147,"x_max":1016,"ha":1163,"o":"m 481 685 q 510 757 481 727 q 582 787 540 787 q 654 757 624 787 q 684 685 684 727 q 654 613 684 643 q 582 584 624 584 q 510 613 540 584 q 481 685 481 643 m 481 184 q 510 256 481 226 q 582 286 540 286 q 654 256 624 286 q 684 184 684 226 q 654 112 684 142 q 582 83 624 83 q 510 112 540 83 q 481 184 481 142 m 147 513 l 1016 513 l 1016 358 l 147 358 l 147 513 "},"h":{"x_min":47.421875,"x_max":891.34375,"ha":1010,"o":"m 47 0 l 236 974 l 129 974 l 145 1055 l 492 1055 l 407 619 q 524 712 463 683 q 670 741 585 741 q 840 668 792 741 q 871 550 871 623 q 861 458 871 508 l 788 82 l 891 82 l 875 0 l 532 0 l 622 465 q 632 545 632 512 q 623 592 632 575 q 549 628 607 628 q 432 574 477 628 q 366 405 388 521 l 287 0 l 47 0 "},".":{"x_min":110.03125,"x_max":373.5,"ha":484,"o":"m 112 109 q 168 200 122 162 q 266 238 213 238 q 350 200 320 238 q 370 109 381 162 q 315 17 360 55 q 216 -20 269 -20 q 132 17 163 -20 q 112 109 102 55 "},";":{"x_min":-32.546875,"x_max":450.609375,"ha":513,"o":"m 191 551 q 246 643 201 605 q 344 681 291 681 q 427 642 397 681 q 447 551 458 604 q 392 461 437 498 q 294 424 347 424 q 210 461 240 424 q 191 551 180 498 m -32 -126 q 96 0 49 -70 q 161 163 143 69 l 172 223 l 366 223 q 252 -39 337 70 q 23 -223 168 -149 l -32 -126 "},"f":{"x_min":-81.421875,"x_max":796.125,"ha":597,"o":"m -65 -188 q 20 -148 -11 -188 q 69 -22 52 -109 l 197 639 l 90 639 l 106 721 l 213 721 l 231 811 q 343 993 254 931 q 580 1055 431 1055 q 691 1048 638 1055 q 796 1029 745 1042 l 765 875 l 689 875 q 691 893 691 885 q 674 953 691 932 q 606 979 653 979 q 520 940 552 979 q 471 813 488 901 l 453 721 l 634 721 l 619 639 l 438 639 l 309 -19 q 197 -202 282 -161 q -81 -264 67 -264 q -65 -188 -73 -226 "},"A":{"x_min":-108.5,"x_max":1011.15625,"ha":1078,"o":"m -108 0 l -92 82 l -10 82 l 552 1012 l 714 1012 l 914 82 l 1011 82 l 995 0 l 521 0 l 537 82 l 636 82 l 593 289 l 212 289 l 87 82 l 208 82 l 192 0 l -108 0 m 261 371 l 575 371 l 495 758 l 261 371 "},"6":{"x_min":63.53125,"x_max":932.671875,"ha":966,"o":"m 359 600 q 468 653 410 635 q 590 671 526 671 q 817 580 746 671 q 857 330 887 489 q 707 71 824 162 q 405 -20 589 -20 q 115 105 198 -20 q 80 472 33 230 q 280 889 134 748 q 660 1030 426 1030 q 788 1019 721 1030 q 932 989 856 1009 l 898 811 l 814 811 q 773 915 814 879 q 658 951 733 951 q 466 868 537 951 q 359 600 396 785 m 318 118 q 406 59 336 59 q 517 118 476 59 q 587 324 558 177 q 597 530 615 471 q 509 590 579 590 q 398 530 439 590 q 328 324 357 471 q 318 118 300 177 "},"O":{"x_min":44.671875,"x_max":1163.8125,"ha":1210,"o":"m 518 62 q 732 171 647 62 q 859 505 816 280 q 861 839 903 730 q 690 949 819 949 q 476 838 561 949 q 348 505 391 728 q 347 172 305 282 q 518 62 389 62 m 501 -20 q 128 119 246 -20 q 58 505 10 259 q 278 890 105 750 q 706 1031 451 1031 q 1079 891 962 1031 q 1150 505 1197 751 q 929 119 1102 259 q 501 -20 756 -20 "},"n":{"x_min":78.40625,"x_max":921.65625,"ha":1010,"o":"m 78 0 l 202 639 l 100 639 l 115 721 l 458 721 l 438 619 q 555 712 494 683 q 701 741 616 741 q 870 668 822 741 q 902 550 902 623 q 891 458 902 508 l 818 82 l 921 82 l 906 0 l 563 0 l 653 465 q 663 545 663 512 q 654 592 663 575 q 580 628 638 628 q 463 574 508 628 q 397 405 419 521 l 318 0 l 78 0 "},"3":{"x_min":5.421875,"x_max":894.25,"ha":966,"o":"m 212 982 q 393 1018 306 1006 q 559 1030 479 1030 q 827 964 742 1030 q 889 777 912 899 q 803 629 871 686 q 624 552 736 572 q 803 462 752 531 q 832 273 855 393 q 677 55 804 131 q 337 -20 550 -20 q 175 -6 257 -20 q 5 34 92 7 l 48 257 l 130 257 q 162 109 119 160 q 299 59 205 59 q 469 116 402 59 q 557 279 537 173 q 532 449 579 389 q 377 509 484 509 l 332 509 l 347 590 l 383 590 q 542 636 482 590 q 619 773 601 682 q 597 905 636 859 q 471 951 559 951 q 336 907 391 951 q 254 780 280 863 l 172 780 l 212 982 "},"9":{"x_min":33.328125,"x_max":902.421875,"ha":966,"o":"m 648 891 q 560 951 630 951 q 449 891 490 951 q 379 685 408 832 q 369 480 351 539 q 457 421 387 421 q 568 480 526 421 q 638 685 609 539 q 648 891 666 832 m 606 412 q 496 358 554 376 q 375 340 438 340 q 149 430 220 340 q 109 680 78 520 q 258 939 141 848 q 559 1030 375 1030 q 849 904 767 1030 q 885 537 932 779 q 685 120 831 261 q 305 -20 539 -20 q 177 -9 244 -20 q 33 20 109 0 l 67 200 l 152 200 q 192 94 152 130 q 308 59 232 59 q 498 142 427 59 q 606 412 569 225 "},"l":{"x_min":47.46875,"x_max":492.34375,"ha":528,"o":"m 303 82 l 406 82 l 390 0 l 47 0 l 236 974 l 134 974 l 149 1055 l 492 1055 l 303 82 "},"Â¤":{"x_min":51.953125,"x_max":835.734375,"ha":885,"o":"m 443 286 q 548 329 505 286 q 592 434 592 372 q 548 539 592 496 q 443 583 505 583 q 338 539 381 583 q 295 434 295 496 q 337 328 295 371 q 443 286 380 286 m 296 181 l 154 40 l 51 145 l 193 287 q 162 354 172 318 q 153 434 153 391 q 163 513 153 477 q 193 581 173 550 l 51 720 l 155 828 l 296 684 q 365 715 328 705 q 443 725 402 725 q 517 715 480 725 q 593 684 554 705 l 732 828 l 835 723 l 693 584 q 724 508 714 546 q 734 434 734 471 q 724 356 734 391 q 693 288 714 320 l 835 145 l 729 40 l 589 184 q 522 153 558 163 q 443 144 486 144 q 367 153 404 144 q 296 181 330 163 "},"4":{"x_min":8.8125,"x_max":878.234375,"ha":966,"o":"m 786 0 l 228 0 l 244 82 l 395 82 l 431 266 l 8 266 l 23 344 l 581 1030 l 836 1030 l 704 354 l 878 354 l 861 266 l 687 266 l 651 82 l 802 82 l 786 0 m 448 354 l 543 845 l 146 354 l 448 354 "},"p":{"x_min":34.46875,"x_max":953,"ha":971,"o":"m 408 395 l 393 324 q 381 209 381 256 q 391 142 381 168 q 484 86 412 86 q 599 145 557 86 q 671 360 641 205 q 690 515 690 456 q 683 574 690 552 q 590 634 664 634 q 475 577 518 634 q 408 395 432 521 m 214 639 l 111 639 l 128 721 l 471 721 l 453 628 q 551 712 494 685 q 684 740 608 740 q 906 638 838 740 q 953 470 953 571 q 941 360 953 419 q 798 81 906 183 q 536 -20 690 -20 q 414 7 460 -20 q 349 91 368 35 l 274 -288 l 34 -288 l 214 639 "},"Ã ":{"x_min":38.0625,"x_max":800.9375,"ha":900,"o":"m 569 593 q 530 634 569 634 q 350 525 439 634 q 276 308 309 475 q 269 134 252 182 q 351 86 287 86 q 454 142 415 86 q 518 324 494 198 l 569 593 m 800 698 l 682 83 l 772 83 l 756 0 l 455 0 l 472 91 q 265 -20 398 -20 q 76 66 134 -20 q 48 303 18 152 q 207 585 77 454 q 567 740 361 740 q 800 698 771 740 m 427 1110 l 552 856 l 440 856 l 238 1110 l 427 1110 "},"Ãœ":{"x_min":131.5625,"x_max":1281.0625,"ha":1211,"o":"m 260 930 l 131 930 l 147 1012 l 668 1012 l 652 930 l 522 930 l 424 423 q 432 158 387 234 q 619 83 476 83 q 832 159 759 83 q 942 423 906 235 l 1040 930 l 912 930 l 928 1012 l 1281 1012 l 1264 930 l 1135 930 l 1034 409 q 869 78 989 177 q 513 -20 750 -20 q 196 79 278 -20 q 160 410 114 179 l 260 930 m 577 1134 q 561 1204 553 1163 q 604 1274 569 1244 q 680 1304 640 1304 q 744 1274 720 1304 q 760 1204 768 1244 q 717 1134 752 1163 q 642 1105 683 1105 q 577 1134 602 1105 m 880 1134 q 864 1204 856 1163 q 908 1274 872 1244 q 983 1304 942 1304 q 1048 1274 1024 1304 q 1064 1204 1072 1244 q 1021 1134 1056 1163 q 945 1105 986 1105 q 880 1134 904 1105 "},"Ã³":{"x_min":47,"x_max":880,"ha":925,"o":"m 404 56 q 523 121 480 56 q 600 360 566 186 q 623 541 623 474 q 616 599 623 576 q 522 664 598 664 q 401 598 445 664 q 324 360 357 533 q 302 182 302 249 q 309 122 302 145 q 404 56 327 56 m 707 81 q 389 -20 579 -20 q 110 81 198 -20 q 47 267 47 154 q 56 360 47 310 q 218 639 91 539 q 537 740 346 740 q 816 640 728 740 q 880 454 880 567 q 869 360 880 410 q 707 81 835 182 m 656 1111 l 845 1111 l 542 856 l 431 856 l 656 1111 "}}}
